<?xml version="1.0" encoding="utf-8" standalone="no"?>
<!DOCTYPE svg PUBLIC "-//W3C//DTD SVG 1.1//EN"
  "http://www.w3.org/Graphics/SVG/1.1/DTD/svg11.dtd">
<svg xmlns:xlink="http://www.w3.org/1999/xlink" width="1000.8pt" height="712.8pt" viewBox="0 0 1000.8 712.8" xmlns="http://www.w3.org/2000/svg" version="1.1">
 <metadata>
  <rdf:RDF xmlns:dc="http://purl.org/dc/elements/1.1/" xmlns:cc="http://creativecommons.org/ns#" xmlns:rdf="http://www.w3.org/1999/02/22-rdf-syntax-ns#">
   <cc:Work>
    <dc:type rdf:resource="http://purl.org/dc/dcmitype/StillImage"/>
    <dc:date>2025-06-30T09:12:24.699253</dc:date>
    <dc:format>image/svg+xml</dc:format>
    <dc:creator>
     <cc:Agent>
      <dc:title>Matplotlib v3.10.3, https://matplotlib.org/</dc:title>
     </cc:Agent>
    </dc:creator>
   </cc:Work>
  </rdf:RDF>
 </metadata>
 <defs>
  <style type="text/css">*{stroke-linejoin: round; stroke-linecap: butt}</style>
 </defs>
 <g id="figure_1">
  <g id="patch_1">
   <path d="M 0 712.8 
L 1000.8 712.8 
L 1000.8 0 
L 0 0 
z
" style="fill: #ffffff"/>
  </g>
  <g id="axes_1">
   <g id="patch_2">
    <path d="M 56.52 141.06 
L 253.8 141.06 
Q 283.392 141.06 283.392 123.6 
L 283.392 77.04 
Q 283.392 59.58 253.8 59.58 
L 56.52 59.58 
Q 26.928 59.58 26.928 77.04 
L 26.928 123.6 
Q 26.928 141.06 56.52 141.06 
z
" clip-path="url(#pd3d079f729)" style="fill: #e3f2fd; stroke: #000000; stroke-width: 1.5; stroke-linejoin: miter"/>
   </g>
   <g id="patch_3">
    <path d="M 303.12 141.06 
L 500.4 141.06 
Q 529.992 141.06 529.992 123.6 
L 529.992 77.04 
Q 529.992 59.58 500.4 59.58 
L 303.12 59.58 
Q 273.528 59.58 273.528 77.04 
L 273.528 123.6 
Q 273.528 141.06 303.12 141.06 
z
" clip-path="url(#pd3d079f729)" style="fill: #e3f2fd; stroke: #000000; stroke-width: 1.5; stroke-linejoin: miter"/>
   </g>
   <g id="patch_4">
    <path d="M 549.72 141.06 
L 747 141.06 
Q 776.592 141.06 776.592 123.6 
L 776.592 77.04 
Q 776.592 59.58 747 59.58 
L 549.72 59.58 
Q 520.128 59.58 520.128 77.04 
L 520.128 123.6 
Q 520.128 141.06 549.72 141.06 
z
" clip-path="url(#pd3d079f729)" style="fill: #fce4ec; stroke: #000000; stroke-width: 1.5; stroke-linejoin: miter"/>
   </g>
   <g id="patch_5">
    <path d="M 204.48 228.36 
L 451.08 228.36 
Q 480.672 228.36 480.672 210.9 
L 480.672 164.34 
Q 480.672 146.88 451.08 146.88 
L 204.48 146.88 
Q 174.888 146.88 174.888 164.34 
L 174.888 210.9 
Q 174.888 228.36 204.48 228.36 
z
" clip-path="url(#pd3d079f729)" style="fill: #fff3e0; stroke: #000000; stroke-width: 1.5; stroke-linejoin: miter"/>
   </g>
   <g id="patch_6">
    <path d="M 549.72 228.36 
L 747 228.36 
Q 776.592 228.36 776.592 210.9 
L 776.592 164.34 
Q 776.592 146.88 747 146.88 
L 549.72 146.88 
Q 520.128 146.88 520.128 164.34 
L 520.128 210.9 
Q 520.128 228.36 549.72 228.36 
z
" clip-path="url(#pd3d079f729)" style="fill: #fff3e0; stroke: #000000; stroke-width: 1.5; stroke-linejoin: miter"/>
   </g>
   <g id="patch_7">
    <path d="M 105.84 315.66 
L 401.76 315.66 
Q 431.352 315.66 431.352 298.2 
L 431.352 251.64 
Q 431.352 234.18 401.76 234.18 
L 105.84 234.18 
Q 76.248 234.18 76.248 251.64 
L 76.248 298.2 
Q 76.248 315.66 105.84 315.66 
z
" clip-path="url(#pd3d079f729)" style="fill: #fff3e0; stroke: #000000; stroke-width: 1.5; stroke-linejoin: miter"/>
   </g>
   <g id="patch_8">
    <path d="M 500.4 315.66 
L 747 315.66 
Q 776.592 315.66 776.592 298.2 
L 776.592 251.64 
Q 776.592 234.18 747 234.18 
L 500.4 234.18 
Q 470.808 234.18 470.808 251.64 
L 470.808 298.2 
Q 470.808 315.66 500.4 315.66 
z
" clip-path="url(#pd3d079f729)" style="fill: #fff3e0; stroke: #000000; stroke-width: 1.5; stroke-linejoin: miter"/>
   </g>
   <g id="patch_9">
    <path d="M 204.48 402.96 
L 500.4 402.96 
Q 529.992 402.96 529.992 385.5 
L 529.992 338.94 
Q 529.992 321.48 500.4 321.48 
L 204.48 321.48 
Q 174.888 321.48 174.888 338.94 
L 174.888 385.5 
Q 174.888 402.96 204.48 402.96 
z
" clip-path="url(#pd3d079f729)" style="fill: #f3e5f5; stroke: #000000; stroke-width: 1.5; stroke-linejoin: miter"/>
   </g>
   <g id="patch_10">
    <path d="M 599.04 402.96 
L 747 402.96 
Q 776.592 402.96 776.592 385.5 
L 776.592 338.94 
Q 776.592 321.48 747 321.48 
L 599.04 321.48 
Q 569.448 321.48 569.448 338.94 
L 569.448 385.5 
Q 569.448 402.96 599.04 402.96 
z
" clip-path="url(#pd3d079f729)" style="fill: #f3e5f5; stroke: #000000; stroke-width: 1.5; stroke-linejoin: miter"/>
   </g>
   <g id="patch_11">
    <path d="M 56.52 490.26 
L 253.8 490.26 
Q 283.392 490.26 283.392 472.8 
L 283.392 426.24 
Q 283.392 408.78 253.8 408.78 
L 56.52 408.78 
Q 26.928 408.78 26.928 426.24 
L 26.928 472.8 
Q 26.928 490.26 56.52 490.26 
z
" clip-path="url(#pd3d079f729)" style="fill: #e8f5e8; stroke: #000000; stroke-width: 1.5; stroke-linejoin: miter"/>
   </g>
   <g id="patch_12">
    <path d="M 303.12 490.26 
L 500.4 490.26 
Q 529.992 490.26 529.992 472.8 
L 529.992 426.24 
Q 529.992 408.78 500.4 408.78 
L 303.12 408.78 
Q 273.528 408.78 273.528 426.24 
L 273.528 472.8 
Q 273.528 490.26 303.12 490.26 
z
" clip-path="url(#pd3d079f729)" style="fill: #e8f5e8; stroke: #000000; stroke-width: 1.5; stroke-linejoin: miter"/>
   </g>
   <g id="patch_13">
    <path d="M 549.72 490.26 
L 747 490.26 
Q 776.592 490.26 776.592 472.8 
L 776.592 426.24 
Q 776.592 408.78 747 408.78 
L 549.72 408.78 
Q 520.128 408.78 520.128 426.24 
L 520.128 472.8 
Q 520.128 490.26 549.72 490.26 
z
" clip-path="url(#pd3d079f729)" style="fill: #e8f5e8; stroke: #000000; stroke-width: 1.5; stroke-linejoin: miter"/>
   </g>
   <g id="patch_14">
    <path d="M 105.84 577.56 
L 303.12 577.56 
Q 332.712 577.56 332.712 560.1 
L 332.712 513.54 
Q 332.712 496.08 303.12 496.08 
L 105.84 496.08 
Q 76.248 496.08 76.248 513.54 
L 76.248 560.1 
Q 76.248 577.56 105.84 577.56 
z
" clip-path="url(#pd3d079f729)" style="fill: #e8f5e8; stroke: #000000; stroke-width: 1.5; stroke-linejoin: miter"/>
   </g>
   <g id="patch_15">
    <path d="M 401.76 577.56 
L 599.04 577.56 
Q 628.632 577.56 628.632 560.1 
L 628.632 513.54 
Q 628.632 496.08 599.04 496.08 
L 401.76 496.08 
Q 372.168 496.08 372.168 513.54 
L 372.168 560.1 
Q 372.168 577.56 401.76 577.56 
z
" clip-path="url(#pd3d079f729)" style="fill: #e8f5e8; stroke: #000000; stroke-width: 1.5; stroke-linejoin: miter"/>
   </g>
   <g id="patch_16">
    <path d="M 648.36 577.56 
L 845.64 577.56 
Q 875.232 577.56 875.232 560.1 
L 875.232 513.54 
Q 875.232 496.08 845.64 496.08 
L 648.36 496.08 
Q 618.768 496.08 618.768 513.54 
L 618.768 560.1 
Q 618.768 577.56 648.36 577.56 
z
" clip-path="url(#pd3d079f729)" style="fill: #e8f5e8; stroke: #000000; stroke-width: 1.5; stroke-linejoin: miter"/>
   </g>
   <g id="patch_17">
    <path d="M 105.84 664.86 
L 303.12 664.86 
Q 332.712 664.86 332.712 647.4 
L 332.712 600.84 
Q 332.712 583.38 303.12 583.38 
L 105.84 583.38 
Q 76.248 583.38 76.248 600.84 
L 76.248 647.4 
Q 76.248 664.86 105.84 664.86 
z
" clip-path="url(#pd3d079f729)" style="fill: #fce4ec; stroke: #000000; stroke-width: 1.5; stroke-linejoin: miter"/>
   </g>
   <g id="patch_18">
    <path d="M 352.44 664.86 
L 549.72 664.86 
Q 579.312 664.86 579.312 647.4 
L 579.312 600.84 
Q 579.312 583.38 549.72 583.38 
L 352.44 583.38 
Q 322.848 583.38 322.848 600.84 
L 322.848 647.4 
Q 322.848 664.86 352.44 664.86 
z
" clip-path="url(#pd3d079f729)" style="fill: #fce4ec; stroke: #000000; stroke-width: 1.5; stroke-linejoin: miter"/>
   </g>
   <g id="patch_19">
    <path d="M 599.04 664.86 
L 796.32 664.86 
Q 825.912 664.86 825.912 647.4 
L 825.912 600.84 
Q 825.912 583.38 796.32 583.38 
L 599.04 583.38 
Q 569.448 583.38 569.448 600.84 
L 569.448 647.4 
Q 569.448 664.86 599.04 664.86 
z
" clip-path="url(#pd3d079f729)" style="fill: #fce4ec; stroke: #000000; stroke-width: 1.5; stroke-linejoin: miter"/>
   </g>
   <g id="patch_20">
    <path d="M 159.977911 124.926586 
Q 229.139811 143.969948 296.145871 162.419711 
" style="fill: none; stroke: #000000; stroke-width: 2; stroke-linecap: round"/>
    <path d="M 289.49477 156.439506 
L 296.145871 162.419711 
L 287.371047 164.152469 
" style="fill: none; stroke: #000000; stroke-width: 2; stroke-linecap: round"/>
   </g>
   <g id="patch_21">
    <path d="M 397.903865 126.785299 
Q 377.099096 143.970746 358.018296 159.732138 
" style="fill: none; stroke: #000000; stroke-width: 2; stroke-linecap: round"/>
    <path d="M 366.733579 157.721207 
L 358.018296 159.732138 
L 361.638721 151.553353 
" style="fill: none; stroke: #000000; stroke-width: 2; stroke-linecap: round"/>
   </g>
   <g id="patch_22">
    <path d="M 648.36 128.59801 
Q 648.36 143.971167 648.36 157.108256 
" style="fill: none; stroke: #000000; stroke-width: 2; stroke-linecap: round"/>
    <path d="M 652.36 149.108256 
L 648.36 157.108256 
L 644.36 149.108256 
" style="fill: none; stroke: #000000; stroke-width: 2; stroke-linecap: round"/>
   </g>
   <g id="patch_23">
    <path d="M 323.402338 213.310732 
Q 290.791111 231.269388 260.138591 248.149405 
" style="fill: none; stroke: #000000; stroke-width: 2; stroke-linecap: round"/>
    <path d="M 269.075807 247.79419 
L 260.138591 248.149405 
L 265.216748 240.786503 
" style="fill: none; stroke: #000000; stroke-width: 2; stroke-linecap: round"/>
   </g>
   <g id="patch_24">
    <path d="M 645.769677 215.179391 
Q 636.030004 231.269994 627.448228 245.447673 
" style="fill: none; stroke: #000000; stroke-width: 2; stroke-linecap: round"/>
    <path d="M 635.012785 240.675097 
L 627.448228 245.447673 
L 628.168902 236.532482 
" style="fill: none; stroke: #000000; stroke-width: 2; stroke-linecap: round"/>
   </g>
   <g id="patch_25">
    <path d="M 258.42074 300.108444 
Q 303.119197 318.569668 345.750924 336.177297 
" style="fill: none; stroke: #000000; stroke-width: 2; stroke-linecap: round"/>
    <path d="M 339.88372 329.426303 
L 345.750924 336.177297 
L 336.829806 336.820464 
" style="fill: none; stroke: #000000; stroke-width: 2; stroke-linecap: round"/>
   </g>
   <g id="patch_26">
    <path d="M 618.955087 299.767784 
Q 562.05277 318.569085 507.273625 336.668861 
" style="fill: none; stroke: #000000; stroke-width: 2; stroke-linecap: round"/>
    <path d="M 516.124645 337.957055 
L 507.273625 336.668861 
L 513.614793 330.360961 
" style="fill: none; stroke: #000000; stroke-width: 2; stroke-linecap: round"/>
   </g>
   <g id="patch_27">
    <path d="M 347.542317 386.511413 
Q 253.800851 405.869824 162.249246 424.77601 
" style="fill: none; stroke: #000000; stroke-width: 2; stroke-linecap: round"/>
    <path d="M 170.892897 427.075424 
L 162.249246 424.77601 
L 169.274967 419.240738 
" style="fill: none; stroke: #000000; stroke-width: 2; stroke-linecap: round"/>
   </g>
   <g id="patch_28">
    <path d="M 356.296135 388.685299 
Q 377.100904 405.870746 396.181704 421.632138 
" style="fill: none; stroke: #000000; stroke-width: 2; stroke-linecap: round"/>
    <path d="M 392.561279 413.453353 
L 396.181704 421.632138 
L 387.466421 419.621207 
" style="fill: none; stroke: #000000; stroke-width: 2; stroke-linecap: round"/>
   </g>
   <g id="patch_29">
    <path d="M 357.393373 386.181942 
Q 500.401499 405.870206 641.194451 425.253502 
" style="fill: none; stroke: #000000; stroke-width: 2; stroke-linecap: round"/>
    <path d="M 633.814748 420.199792 
L 641.194451 425.253502 
L 632.723661 428.125038 
" style="fill: none; stroke: #000000; stroke-width: 2; stroke-linecap: round"/>
   </g>
   <g id="patch_30">
    <path d="M 159.016135 475.985299 
Q 179.820904 493.170746 198.901704 508.932138 
" style="fill: none; stroke: #000000; stroke-width: 2; stroke-linecap: round"/>
    <path d="M 195.281279 500.753353 
L 198.901704 508.932138 
L 190.186421 506.921207 
" style="fill: none; stroke: #000000; stroke-width: 2; stroke-linecap: round"/>
   </g>
   <g id="patch_31">
    <path d="M 406.38074 474.708444 
Q 451.079197 493.169668 493.710924 510.777297 
" style="fill: none; stroke: #000000; stroke-width: 2; stroke-linecap: round"/>
    <path d="M 487.84372 504.026303 
L 493.710924 510.777297 
L 484.789806 511.420464 
" style="fill: none; stroke: #000000; stroke-width: 2; stroke-linecap: round"/>
   </g>
   <g id="patch_32">
    <path d="M 652.98074 474.708444 
Q 697.679197 493.169668 740.310924 510.777297 
" style="fill: none; stroke: #000000; stroke-width: 2; stroke-linecap: round"/>
    <path d="M 734.44372 504.026303 
L 740.310924 510.777297 
L 731.389806 511.420464 
" style="fill: none; stroke: #000000; stroke-width: 2; stroke-linecap: round"/>
   </g>
   <g id="patch_33">
    <path d="M 204.48 565.09801 
Q 204.48 580.471167 204.48 593.608256 
" style="fill: none; stroke: #000000; stroke-width: 2; stroke-linecap: round"/>
    <path d="M 208.48 585.608256 
L 204.48 593.608256 
L 200.48 585.608256 
" style="fill: none; stroke: #000000; stroke-width: 2; stroke-linecap: round"/>
   </g>
   <g id="patch_34">
    <path d="M 496.543865 563.285299 
Q 475.739096 580.470746 456.658296 596.232138 
" style="fill: none; stroke: #000000; stroke-width: 2; stroke-linecap: round"/>
    <path d="M 465.373579 594.221207 
L 456.658296 596.232138 
L 460.278721 588.053353 
" style="fill: none; stroke: #000000; stroke-width: 2; stroke-linecap: round"/>
   </g>
   <g id="patch_35">
    <path d="M 743.143865 563.285299 
Q 722.339096 580.470746 703.258296 596.232138 
" style="fill: none; stroke: #000000; stroke-width: 2; stroke-linecap: round"/>
    <path d="M 711.973579 594.221207 
L 703.258296 596.232138 
L 706.878721 588.053353 
" style="fill: none; stroke: #000000; stroke-width: 2; stroke-linecap: round"/>
   </g>
   <g id="patch_36">
    <path d="M 643.547357 124.962997 
Q 525.057311 158.520762 408.718714 191.469211 
" style="fill: none; stroke: #000000; stroke-width: 2; stroke-linecap: round"/>
    <path d="M 417.505951 193.137887 
L 408.718714 191.469211 
L 415.325997 185.440627 
" style="fill: none; stroke: #000000; stroke-width: 2; stroke-linecap: round"/>
   </g>
   <g id="patch_37">
    <path d="M 155.16 696.87 
L 184.752 696.87 
Q 189.684 696.87 189.684 693.96 
L 189.684 682.32 
Q 189.684 679.41 184.752 679.41 
L 155.16 679.41 
Q 150.228 679.41 150.228 682.32 
L 150.228 693.96 
Q 150.228 696.87 155.16 696.87 
z
" clip-path="url(#pd3d079f729)" style="fill: #e3f2fd; stroke: #000000; stroke-linejoin: miter"/>
   </g>
   <g id="patch_38">
    <path d="M 303.12 696.87 
L 332.712 696.87 
Q 337.644 696.87 337.644 693.96 
L 337.644 682.32 
Q 337.644 679.41 332.712 679.41 
L 303.12 679.41 
Q 298.188 679.41 298.188 682.32 
L 298.188 693.96 
Q 298.188 696.87 303.12 696.87 
z
" clip-path="url(#pd3d079f729)" style="fill: #fff3e0; stroke: #000000; stroke-linejoin: miter"/>
   </g>
   <g id="patch_39">
    <path d="M 451.08 696.87 
L 480.672 696.87 
Q 485.604 696.87 485.604 693.96 
L 485.604 682.32 
Q 485.604 679.41 480.672 679.41 
L 451.08 679.41 
Q 446.148 679.41 446.148 682.32 
L 446.148 693.96 
Q 446.148 696.87 451.08 696.87 
z
" clip-path="url(#pd3d079f729)" style="fill: #f3e5f5; stroke: #000000; stroke-linejoin: miter"/>
   </g>
   <g id="patch_40">
    <path d="M 599.04 696.87 
L 628.632 696.87 
Q 633.564 696.87 633.564 693.96 
L 633.564 682.32 
Q 633.564 679.41 628.632 679.41 
L 599.04 679.41 
Q 594.108 679.41 594.108 682.32 
L 594.108 693.96 
Q 594.108 696.87 599.04 696.87 
z
" clip-path="url(#pd3d079f729)" style="fill: #e8f5e8; stroke: #000000; stroke-linejoin: miter"/>
   </g>
   <g id="patch_41">
    <path d="M 747 696.87 
L 776.592 696.87 
Q 781.524 696.87 781.524 693.96 
L 781.524 682.32 
Q 781.524 679.41 776.592 679.41 
L 747 679.41 
Q 742.068 679.41 742.068 682.32 
L 742.068 693.96 
Q 742.068 696.87 747 696.87 
z
" clip-path="url(#pd3d079f729)" style="fill: #fce4ec; stroke: #000000; stroke-linejoin: miter"/>
   </g>
   <g id="text_1">
    <!-- Single-Cell RNA-seq Analysis Pipeline -->
    <g transform="translate(310.608281 41.196562) scale(0.18 -0.18)">
     <defs>
      <path id="DejaVuSans-Bold-53" d="M 3834 4519 
L 3834 3531 
Q 3450 3703 3084 3790 
Q 2719 3878 2394 3878 
Q 1963 3878 1756 3759 
Q 1550 3641 1550 3391 
Q 1550 3203 1689 3098 
Q 1828 2994 2194 2919 
L 2706 2816 
Q 3484 2659 3812 2340 
Q 4141 2022 4141 1434 
Q 4141 663 3683 286 
Q 3225 -91 2284 -91 
Q 1841 -91 1394 -6 
Q 947 78 500 244 
L 500 1259 
Q 947 1022 1364 901 
Q 1781 781 2169 781 
Q 2563 781 2772 912 
Q 2981 1044 2981 1288 
Q 2981 1506 2839 1625 
Q 2697 1744 2272 1838 
L 1806 1941 
Q 1106 2091 782 2419 
Q 459 2747 459 3303 
Q 459 4000 909 4375 
Q 1359 4750 2203 4750 
Q 2588 4750 2994 4692 
Q 3400 4634 3834 4519 
z
" transform="scale(0.015625)"/>
      <path id="DejaVuSans-Bold-69" d="M 538 3500 
L 1656 3500 
L 1656 0 
L 538 0 
L 538 3500 
z
M 538 4863 
L 1656 4863 
L 1656 3950 
L 538 3950 
L 538 4863 
z
" transform="scale(0.015625)"/>
      <path id="DejaVuSans-Bold-6e" d="M 4056 2131 
L 4056 0 
L 2931 0 
L 2931 347 
L 2931 1631 
Q 2931 2084 2911 2256 
Q 2891 2428 2841 2509 
Q 2775 2619 2662 2680 
Q 2550 2741 2406 2741 
Q 2056 2741 1856 2470 
Q 1656 2200 1656 1722 
L 1656 0 
L 538 0 
L 538 3500 
L 1656 3500 
L 1656 2988 
Q 1909 3294 2193 3439 
Q 2478 3584 2822 3584 
Q 3428 3584 3742 3212 
Q 4056 2841 4056 2131 
z
" transform="scale(0.015625)"/>
      <path id="DejaVuSans-Bold-67" d="M 2919 594 
Q 2688 288 2409 144 
Q 2131 0 1766 0 
Q 1125 0 706 504 
Q 288 1009 288 1791 
Q 288 2575 706 3076 
Q 1125 3578 1766 3578 
Q 2131 3578 2409 3434 
Q 2688 3291 2919 2981 
L 2919 3500 
L 4044 3500 
L 4044 353 
Q 4044 -491 3511 -936 
Q 2978 -1381 1966 -1381 
Q 1638 -1381 1331 -1331 
Q 1025 -1281 716 -1178 
L 716 -306 
Q 1009 -475 1290 -558 
Q 1572 -641 1856 -641 
Q 2406 -641 2662 -400 
Q 2919 -159 2919 353 
L 2919 594 
z
M 2181 2772 
Q 1834 2772 1640 2515 
Q 1447 2259 1447 1791 
Q 1447 1309 1634 1061 
Q 1822 813 2181 813 
Q 2531 813 2725 1069 
Q 2919 1325 2919 1791 
Q 2919 2259 2725 2515 
Q 2531 2772 2181 2772 
z
" transform="scale(0.015625)"/>
      <path id="DejaVuSans-Bold-6c" d="M 538 4863 
L 1656 4863 
L 1656 0 
L 538 0 
L 538 4863 
z
" transform="scale(0.015625)"/>
      <path id="DejaVuSans-Bold-65" d="M 4031 1759 
L 4031 1441 
L 1416 1441 
Q 1456 1047 1700 850 
Q 1944 653 2381 653 
Q 2734 653 3104 758 
Q 3475 863 3866 1075 
L 3866 213 
Q 3469 63 3072 -14 
Q 2675 -91 2278 -91 
Q 1328 -91 801 392 
Q 275 875 275 1747 
Q 275 2603 792 3093 
Q 1309 3584 2216 3584 
Q 3041 3584 3536 3087 
Q 4031 2591 4031 1759 
z
M 2881 2131 
Q 2881 2450 2695 2645 
Q 2509 2841 2209 2841 
Q 1884 2841 1681 2658 
Q 1478 2475 1428 2131 
L 2881 2131 
z
" transform="scale(0.015625)"/>
      <path id="DejaVuSans-Bold-2d" d="M 347 2297 
L 2309 2297 
L 2309 1388 
L 347 1388 
L 347 2297 
z
" transform="scale(0.015625)"/>
      <path id="DejaVuSans-Bold-43" d="M 4288 256 
Q 3956 84 3597 -3 
Q 3238 -91 2847 -91 
Q 1681 -91 1000 561 
Q 319 1213 319 2328 
Q 319 3447 1000 4098 
Q 1681 4750 2847 4750 
Q 3238 4750 3597 4662 
Q 3956 4575 4288 4403 
L 4288 3438 
Q 3953 3666 3628 3772 
Q 3303 3878 2944 3878 
Q 2300 3878 1931 3465 
Q 1563 3053 1563 2328 
Q 1563 1606 1931 1193 
Q 2300 781 2944 781 
Q 3303 781 3628 887 
Q 3953 994 4288 1222 
L 4288 256 
z
" transform="scale(0.015625)"/>
      <path id="DejaVuSans-Bold-20" transform="scale(0.015625)"/>
      <path id="DejaVuSans-Bold-52" d="M 2297 2597 
Q 2675 2597 2839 2737 
Q 3003 2878 3003 3200 
Q 3003 3519 2839 3656 
Q 2675 3794 2297 3794 
L 1791 3794 
L 1791 2597 
L 2297 2597 
z
M 1791 1766 
L 1791 0 
L 588 0 
L 588 4666 
L 2425 4666 
Q 3347 4666 3776 4356 
Q 4206 4047 4206 3378 
Q 4206 2916 3982 2619 
Q 3759 2322 3309 2181 
Q 3556 2125 3751 1926 
Q 3947 1728 4147 1325 
L 4800 0 
L 3519 0 
L 2950 1159 
Q 2778 1509 2601 1637 
Q 2425 1766 2131 1766 
L 1791 1766 
z
" transform="scale(0.015625)"/>
      <path id="DejaVuSans-Bold-4e" d="M 588 4666 
L 1931 4666 
L 3628 1466 
L 3628 4666 
L 4769 4666 
L 4769 0 
L 3425 0 
L 1728 3200 
L 1728 0 
L 588 0 
L 588 4666 
z
" transform="scale(0.015625)"/>
      <path id="DejaVuSans-Bold-41" d="M 3419 850 
L 1538 850 
L 1241 0 
L 31 0 
L 1759 4666 
L 3194 4666 
L 4922 0 
L 3713 0 
L 3419 850 
z
M 1838 1716 
L 3116 1716 
L 2478 3572 
L 1838 1716 
z
" transform="scale(0.015625)"/>
      <path id="DejaVuSans-Bold-73" d="M 3272 3391 
L 3272 2541 
Q 2913 2691 2578 2766 
Q 2244 2841 1947 2841 
Q 1628 2841 1473 2761 
Q 1319 2681 1319 2516 
Q 1319 2381 1436 2309 
Q 1553 2238 1856 2203 
L 2053 2175 
Q 2913 2066 3209 1816 
Q 3506 1566 3506 1031 
Q 3506 472 3093 190 
Q 2681 -91 1863 -91 
Q 1516 -91 1145 -36 
Q 775 19 384 128 
L 384 978 
Q 719 816 1070 734 
Q 1422 653 1784 653 
Q 2113 653 2278 743 
Q 2444 834 2444 1013 
Q 2444 1163 2330 1236 
Q 2216 1309 1875 1350 
L 1678 1375 
Q 931 1469 631 1722 
Q 331 1975 331 2491 
Q 331 3047 712 3315 
Q 1094 3584 1881 3584 
Q 2191 3584 2531 3537 
Q 2872 3491 3272 3391 
z
" transform="scale(0.015625)"/>
      <path id="DejaVuSans-Bold-71" d="M 2181 2772 
Q 1825 2772 1636 2509 
Q 1447 2247 1447 1747 
Q 1447 1247 1636 984 
Q 1825 722 2181 722 
Q 2541 722 2730 984 
Q 2919 1247 2919 1747 
Q 2919 2247 2730 2509 
Q 2541 2772 2181 2772 
z
M 2919 506 
Q 2688 197 2409 53 
Q 2131 -91 1766 -91 
Q 1119 -91 703 423 
Q 288 938 288 1747 
Q 288 2556 703 3067 
Q 1119 3578 1766 3578 
Q 2131 3578 2409 3434 
Q 2688 3291 2919 2981 
L 2919 3500 
L 4044 3500 
L 4044 -1331 
L 2919 -1331 
L 2919 506 
z
" transform="scale(0.015625)"/>
      <path id="DejaVuSans-Bold-61" d="M 2106 1575 
Q 1756 1575 1579 1456 
Q 1403 1338 1403 1106 
Q 1403 894 1545 773 
Q 1688 653 1941 653 
Q 2256 653 2472 879 
Q 2688 1106 2688 1447 
L 2688 1575 
L 2106 1575 
z
M 3816 1997 
L 3816 0 
L 2688 0 
L 2688 519 
Q 2463 200 2181 54 
Q 1900 -91 1497 -91 
Q 953 -91 614 226 
Q 275 544 275 1050 
Q 275 1666 698 1953 
Q 1122 2241 2028 2241 
L 2688 2241 
L 2688 2328 
Q 2688 2594 2478 2717 
Q 2269 2841 1825 2841 
Q 1466 2841 1156 2769 
Q 847 2697 581 2553 
L 581 3406 
Q 941 3494 1303 3539 
Q 1666 3584 2028 3584 
Q 2975 3584 3395 3211 
Q 3816 2838 3816 1997 
z
" transform="scale(0.015625)"/>
      <path id="DejaVuSans-Bold-79" d="M 78 3500 
L 1197 3500 
L 2138 1125 
L 2938 3500 
L 4056 3500 
L 2584 -331 
Q 2363 -916 2067 -1148 
Q 1772 -1381 1288 -1381 
L 641 -1381 
L 641 -647 
L 991 -647 
Q 1275 -647 1404 -556 
Q 1534 -466 1606 -231 
L 1638 -134 
L 78 3500 
z
" transform="scale(0.015625)"/>
      <path id="DejaVuSans-Bold-50" d="M 588 4666 
L 2584 4666 
Q 3475 4666 3951 4270 
Q 4428 3875 4428 3144 
Q 4428 2409 3951 2014 
Q 3475 1619 2584 1619 
L 1791 1619 
L 1791 0 
L 588 0 
L 588 4666 
z
M 1791 3794 
L 1791 2491 
L 2456 2491 
Q 2806 2491 2997 2661 
Q 3188 2831 3188 3144 
Q 3188 3456 2997 3625 
Q 2806 3794 2456 3794 
L 1791 3794 
z
" transform="scale(0.015625)"/>
      <path id="DejaVuSans-Bold-70" d="M 1656 506 
L 1656 -1331 
L 538 -1331 
L 538 3500 
L 1656 3500 
L 1656 2988 
Q 1888 3294 2169 3439 
Q 2450 3584 2816 3584 
Q 3463 3584 3878 3070 
Q 4294 2556 4294 1747 
Q 4294 938 3878 423 
Q 3463 -91 2816 -91 
Q 2450 -91 2169 54 
Q 1888 200 1656 506 
z
M 2400 2772 
Q 2041 2772 1848 2508 
Q 1656 2244 1656 1747 
Q 1656 1250 1848 986 
Q 2041 722 2400 722 
Q 2759 722 2948 984 
Q 3138 1247 3138 1747 
Q 3138 2247 2948 2509 
Q 2759 2772 2400 2772 
z
" transform="scale(0.015625)"/>
     </defs>
     <use xlink:href="#DejaVuSans-Bold-53"/>
     <use xlink:href="#DejaVuSans-Bold-69" transform="translate(72.021484 0)"/>
     <use xlink:href="#DejaVuSans-Bold-6e" transform="translate(106.298828 0)"/>
     <use xlink:href="#DejaVuSans-Bold-67" transform="translate(177.490234 0)"/>
     <use xlink:href="#DejaVuSans-Bold-6c" transform="translate(249.072266 0)"/>
     <use xlink:href="#DejaVuSans-Bold-65" transform="translate(283.349609 0)"/>
     <use xlink:href="#DejaVuSans-Bold-2d" transform="translate(351.171875 0)"/>
     <use xlink:href="#DejaVuSans-Bold-43" transform="translate(392.675781 0)"/>
     <use xlink:href="#DejaVuSans-Bold-65" transform="translate(466.064453 0)"/>
     <use xlink:href="#DejaVuSans-Bold-6c" transform="translate(533.886719 0)"/>
     <use xlink:href="#DejaVuSans-Bold-6c" transform="translate(568.164062 0)"/>
     <use xlink:href="#DejaVuSans-Bold-20" transform="translate(602.441406 0)"/>
     <use xlink:href="#DejaVuSans-Bold-52" transform="translate(637.255859 0)"/>
     <use xlink:href="#DejaVuSans-Bold-4e" transform="translate(714.257812 0)"/>
     <use xlink:href="#DejaVuSans-Bold-41" transform="translate(797.949219 0)"/>
     <use xlink:href="#DejaVuSans-Bold-2d" transform="translate(875.341797 0)"/>
     <use xlink:href="#DejaVuSans-Bold-73" transform="translate(916.845703 0)"/>
     <use xlink:href="#DejaVuSans-Bold-65" transform="translate(976.367188 0)"/>
     <use xlink:href="#DejaVuSans-Bold-71" transform="translate(1044.189453 0)"/>
     <use xlink:href="#DejaVuSans-Bold-20" transform="translate(1115.771484 0)"/>
     <use xlink:href="#DejaVuSans-Bold-41" transform="translate(1150.585938 0)"/>
     <use xlink:href="#DejaVuSans-Bold-6e" transform="translate(1227.978516 0)"/>
     <use xlink:href="#DejaVuSans-Bold-61" transform="translate(1299.169922 0)"/>
     <use xlink:href="#DejaVuSans-Bold-6c" transform="translate(1366.650391 0)"/>
     <use xlink:href="#DejaVuSans-Bold-79" transform="translate(1400.927734 0)"/>
     <use xlink:href="#DejaVuSans-Bold-73" transform="translate(1466.113281 0)"/>
     <use xlink:href="#DejaVuSans-Bold-69" transform="translate(1525.634766 0)"/>
     <use xlink:href="#DejaVuSans-Bold-73" transform="translate(1559.912109 0)"/>
     <use xlink:href="#DejaVuSans-Bold-20" transform="translate(1619.433594 0)"/>
     <use xlink:href="#DejaVuSans-Bold-50" transform="translate(1654.248047 0)"/>
     <use xlink:href="#DejaVuSans-Bold-69" transform="translate(1727.539062 0)"/>
     <use xlink:href="#DejaVuSans-Bold-70" transform="translate(1761.816406 0)"/>
     <use xlink:href="#DejaVuSans-Bold-65" transform="translate(1833.398438 0)"/>
     <use xlink:href="#DejaVuSans-Bold-6c" transform="translate(1901.220703 0)"/>
     <use xlink:href="#DejaVuSans-Bold-69" transform="translate(1935.498047 0)"/>
     <use xlink:href="#DejaVuSans-Bold-6e" transform="translate(1969.775391 0)"/>
     <use xlink:href="#DejaVuSans-Bold-65" transform="translate(2040.966797 0)"/>
    </g>
   </g>
   <g id="text_2">
    <!-- ðŸ“¥ Raw Data -->
    <g transform="translate(123.545156 97.480469) scale(0.1 -0.1)">
     <defs>
      <path id="DejaVuSans-Bold-1f4e5" d="M 319 -1131 
L 319 4513 
L 3519 4513 
L 3519 -1131 
L 319 -1131 
z
M 678 -775 
L 3163 -775 
L 3163 4153 
L 678 4153 
L 678 -775 
z
" transform="scale(0.015625)"/>
      <path id="DejaVuSans-Bold-77" d="M 225 3500 
L 1313 3500 
L 1900 1088 
L 2491 3500 
L 3425 3500 
L 4013 1113 
L 4603 3500 
L 5691 3500 
L 4769 0 
L 3547 0 
L 2956 2406 
L 2369 0 
L 1147 0 
L 225 3500 
z
" transform="scale(0.015625)"/>
      <path id="DejaVuSans-Bold-44" d="M 1791 3756 
L 1791 909 
L 2222 909 
Q 2959 909 3348 1275 
Q 3738 1641 3738 2338 
Q 3738 3031 3350 3393 
Q 2963 3756 2222 3756 
L 1791 3756 
z
M 588 4666 
L 1856 4666 
Q 2919 4666 3439 4514 
Q 3959 4363 4331 4000 
Q 4659 3684 4818 3271 
Q 4978 2859 4978 2338 
Q 4978 1809 4818 1395 
Q 4659 981 4331 666 
Q 3956 303 3431 151 
Q 2906 0 1856 0 
L 588 0 
L 588 4666 
z
" transform="scale(0.015625)"/>
      <path id="DejaVuSans-Bold-74" d="M 1759 4494 
L 1759 3500 
L 2913 3500 
L 2913 2700 
L 1759 2700 
L 1759 1216 
Q 1759 972 1856 886 
Q 1953 800 2241 800 
L 2816 800 
L 2816 0 
L 1856 0 
Q 1194 0 917 276 
Q 641 553 641 1216 
L 641 2700 
L 84 2700 
L 84 3500 
L 641 3500 
L 641 4494 
L 1759 4494 
z
" transform="scale(0.015625)"/>
     </defs>
     <use xlink:href="#DejaVuSans-Bold-1f4e5"/>
     <use xlink:href="#DejaVuSans-Bold-20" transform="translate(60.009766 0)"/>
     <use xlink:href="#DejaVuSans-Bold-52" transform="translate(94.824219 0)"/>
     <use xlink:href="#DejaVuSans-Bold-61" transform="translate(171.826172 0)"/>
     <use xlink:href="#DejaVuSans-Bold-77" transform="translate(239.306641 0)"/>
     <use xlink:href="#DejaVuSans-Bold-20" transform="translate(331.689453 0)"/>
     <use xlink:href="#DejaVuSans-Bold-44" transform="translate(366.503906 0)"/>
     <use xlink:href="#DejaVuSans-Bold-61" transform="translate(449.511719 0)"/>
     <use xlink:href="#DejaVuSans-Bold-74" transform="translate(516.992188 0)"/>
     <use xlink:href="#DejaVuSans-Bold-61" transform="translate(564.794922 0)"/>
    </g>
    <!-- (10X, H5AD, CSV) -->
    <g transform="translate(105.580312 108.678281) scale(0.1 -0.1)">
     <defs>
      <path id="DejaVuSans-Bold-28" d="M 2413 -844 
L 1484 -844 
Q 1006 -72 778 623 
Q 550 1319 550 2003 
Q 550 2688 779 3389 
Q 1009 4091 1484 4856 
L 2413 4856 
Q 2013 4116 1813 3408 
Q 1613 2700 1613 2009 
Q 1613 1319 1811 609 
Q 2009 -100 2413 -844 
z
" transform="scale(0.015625)"/>
      <path id="DejaVuSans-Bold-31" d="M 750 831 
L 1813 831 
L 1813 3847 
L 722 3622 
L 722 4441 
L 1806 4666 
L 2950 4666 
L 2950 831 
L 4013 831 
L 4013 0 
L 750 0 
L 750 831 
z
" transform="scale(0.015625)"/>
      <path id="DejaVuSans-Bold-30" d="M 2944 2338 
Q 2944 3213 2780 3570 
Q 2616 3928 2228 3928 
Q 1841 3928 1675 3570 
Q 1509 3213 1509 2338 
Q 1509 1453 1675 1090 
Q 1841 728 2228 728 
Q 2613 728 2778 1090 
Q 2944 1453 2944 2338 
z
M 4147 2328 
Q 4147 1169 3647 539 
Q 3147 -91 2228 -91 
Q 1306 -91 806 539 
Q 306 1169 306 2328 
Q 306 3491 806 4120 
Q 1306 4750 2228 4750 
Q 3147 4750 3647 4120 
Q 4147 3491 4147 2328 
z
" transform="scale(0.015625)"/>
      <path id="DejaVuSans-Bold-58" d="M 3188 2381 
L 4806 0 
L 3553 0 
L 2463 1594 
L 1381 0 
L 122 0 
L 1741 2381 
L 184 4666 
L 1441 4666 
L 2463 3163 
L 3481 4666 
L 4744 4666 
L 3188 2381 
z
" transform="scale(0.015625)"/>
      <path id="DejaVuSans-Bold-2c" d="M 653 1209 
L 1778 1209 
L 1778 256 
L 1006 -909 
L 341 -909 
L 653 256 
L 653 1209 
z
" transform="scale(0.015625)"/>
      <path id="DejaVuSans-Bold-48" d="M 588 4666 
L 1791 4666 
L 1791 2888 
L 3566 2888 
L 3566 4666 
L 4769 4666 
L 4769 0 
L 3566 0 
L 3566 1978 
L 1791 1978 
L 1791 0 
L 588 0 
L 588 4666 
z
" transform="scale(0.015625)"/>
      <path id="DejaVuSans-Bold-35" d="M 678 4666 
L 3669 4666 
L 3669 3781 
L 1638 3781 
L 1638 3059 
Q 1775 3097 1914 3117 
Q 2053 3138 2203 3138 
Q 3056 3138 3531 2711 
Q 4006 2284 4006 1522 
Q 4006 766 3489 337 
Q 2972 -91 2053 -91 
Q 1656 -91 1267 -14 
Q 878 63 494 219 
L 494 1166 
Q 875 947 1217 837 
Q 1559 728 1863 728 
Q 2300 728 2551 942 
Q 2803 1156 2803 1522 
Q 2803 1891 2551 2103 
Q 2300 2316 1863 2316 
Q 1603 2316 1309 2248 
Q 1016 2181 678 2041 
L 678 4666 
z
" transform="scale(0.015625)"/>
      <path id="DejaVuSans-Bold-56" d="M 31 4666 
L 1241 4666 
L 2478 1222 
L 3713 4666 
L 4922 4666 
L 3194 0 
L 1759 0 
L 31 4666 
z
" transform="scale(0.015625)"/>
      <path id="DejaVuSans-Bold-29" d="M 513 -844 
Q 913 -100 1113 609 
Q 1313 1319 1313 2009 
Q 1313 2700 1113 3408 
Q 913 4116 513 4856 
L 1441 4856 
Q 1916 4091 2145 3389 
Q 2375 2688 2375 2003 
Q 2375 1319 2147 623 
Q 1919 -72 1441 -844 
L 513 -844 
z
" transform="scale(0.015625)"/>
     </defs>
     <use xlink:href="#DejaVuSans-Bold-28"/>
     <use xlink:href="#DejaVuSans-Bold-31" transform="translate(45.703125 0)"/>
     <use xlink:href="#DejaVuSans-Bold-30" transform="translate(115.283203 0)"/>
     <use xlink:href="#DejaVuSans-Bold-58" transform="translate(184.863281 0)"/>
     <use xlink:href="#DejaVuSans-Bold-2c" transform="translate(261.962891 0)"/>
     <use xlink:href="#DejaVuSans-Bold-20" transform="translate(299.951172 0)"/>
     <use xlink:href="#DejaVuSans-Bold-48" transform="translate(334.765625 0)"/>
     <use xlink:href="#DejaVuSans-Bold-35" transform="translate(418.457031 0)"/>
     <use xlink:href="#DejaVuSans-Bold-41" transform="translate(488.037109 0)"/>
     <use xlink:href="#DejaVuSans-Bold-44" transform="translate(565.429688 0)"/>
     <use xlink:href="#DejaVuSans-Bold-2c" transform="translate(648.4375 0)"/>
     <use xlink:href="#DejaVuSans-Bold-20" transform="translate(686.425781 0)"/>
     <use xlink:href="#DejaVuSans-Bold-43" transform="translate(721.240234 0)"/>
     <use xlink:href="#DejaVuSans-Bold-53" transform="translate(796.503906 0)"/>
     <use xlink:href="#DejaVuSans-Bold-56" transform="translate(868.525391 0)"/>
     <use xlink:href="#DejaVuSans-Bold-29" transform="translate(945.917969 0)"/>
    </g>
   </g>
   <g id="text_3">
    <!-- ðŸ§ª PBMC Dataset -->
    <g transform="translate(357.110781 97.480469) scale(0.1 -0.1)">
     <defs>
      <path id="DejaVuSans-Bold-1f9ea" d="M 319 -1131 
L 319 4513 
L 3519 4513 
L 3519 -1131 
L 319 -1131 
z
M 678 -775 
L 3163 -775 
L 3163 4153 
L 678 4153 
L 678 -775 
z
" transform="scale(0.015625)"/>
      <path id="DejaVuSans-Bold-42" d="M 2456 2859 
Q 2741 2859 2887 2984 
Q 3034 3109 3034 3353 
Q 3034 3594 2887 3720 
Q 2741 3847 2456 3847 
L 1791 3847 
L 1791 2859 
L 2456 2859 
z
M 2497 819 
Q 2859 819 3042 972 
Q 3225 1125 3225 1434 
Q 3225 1738 3044 1889 
Q 2863 2041 2497 2041 
L 1791 2041 
L 1791 819 
L 2497 819 
z
M 3616 2497 
Q 4003 2384 4215 2081 
Q 4428 1778 4428 1338 
Q 4428 663 3972 331 
Q 3516 0 2584 0 
L 588 0 
L 588 4666 
L 2394 4666 
Q 3366 4666 3802 4372 
Q 4238 4078 4238 3431 
Q 4238 3091 4078 2852 
Q 3919 2613 3616 2497 
z
" transform="scale(0.015625)"/>
      <path id="DejaVuSans-Bold-4d" d="M 588 4666 
L 2119 4666 
L 3181 2169 
L 4250 4666 
L 5778 4666 
L 5778 0 
L 4641 0 
L 4641 3413 
L 3566 897 
L 2803 897 
L 1728 3413 
L 1728 0 
L 588 0 
L 588 4666 
z
" transform="scale(0.015625)"/>
     </defs>
     <use xlink:href="#DejaVuSans-Bold-1f9ea"/>
     <use xlink:href="#DejaVuSans-Bold-20" transform="translate(60.009766 0)"/>
     <use xlink:href="#DejaVuSans-Bold-50" transform="translate(94.824219 0)"/>
     <use xlink:href="#DejaVuSans-Bold-42" transform="translate(168.115234 0)"/>
     <use xlink:href="#DejaVuSans-Bold-4d" transform="translate(244.335938 0)"/>
     <use xlink:href="#DejaVuSans-Bold-43" transform="translate(343.847656 0)"/>
     <use xlink:href="#DejaVuSans-Bold-20" transform="translate(417.236328 0)"/>
     <use xlink:href="#DejaVuSans-Bold-44" transform="translate(452.050781 0)"/>
     <use xlink:href="#DejaVuSans-Bold-61" transform="translate(535.058594 0)"/>
     <use xlink:href="#DejaVuSans-Bold-74" transform="translate(602.539062 0)"/>
     <use xlink:href="#DejaVuSans-Bold-61" transform="translate(650.341797 0)"/>
     <use xlink:href="#DejaVuSans-Bold-73" transform="translate(717.822266 0)"/>
     <use xlink:href="#DejaVuSans-Bold-65" transform="translate(777.34375 0)"/>
     <use xlink:href="#DejaVuSans-Bold-74" transform="translate(845.166016 0)"/>
    </g>
    <!-- (3K cells) -->
    <g transform="translate(375.336563 108.678281) scale(0.1 -0.1)">
     <defs>
      <path id="DejaVuSans-Bold-33" d="M 2981 2516 
Q 3453 2394 3698 2092 
Q 3944 1791 3944 1325 
Q 3944 631 3412 270 
Q 2881 -91 1863 -91 
Q 1503 -91 1142 -33 
Q 781 25 428 141 
L 428 1069 
Q 766 900 1098 814 
Q 1431 728 1753 728 
Q 2231 728 2486 893 
Q 2741 1059 2741 1369 
Q 2741 1688 2480 1852 
Q 2219 2016 1709 2016 
L 1228 2016 
L 1228 2791 
L 1734 2791 
Q 2188 2791 2409 2933 
Q 2631 3075 2631 3366 
Q 2631 3634 2415 3781 
Q 2200 3928 1806 3928 
Q 1516 3928 1219 3862 
Q 922 3797 628 3669 
L 628 4550 
Q 984 4650 1334 4700 
Q 1684 4750 2022 4750 
Q 2931 4750 3382 4451 
Q 3834 4153 3834 3553 
Q 3834 3144 3618 2883 
Q 3403 2622 2981 2516 
z
" transform="scale(0.015625)"/>
      <path id="DejaVuSans-Bold-4b" d="M 588 4666 
L 1791 4666 
L 1791 2963 
L 3525 4666 
L 4922 4666 
L 2675 2456 
L 5153 0 
L 3647 0 
L 1791 1838 
L 1791 0 
L 588 0 
L 588 4666 
z
" transform="scale(0.015625)"/>
      <path id="DejaVuSans-Bold-63" d="M 3366 3391 
L 3366 2478 
Q 3138 2634 2908 2709 
Q 2678 2784 2431 2784 
Q 1963 2784 1702 2511 
Q 1441 2238 1441 1747 
Q 1441 1256 1702 982 
Q 1963 709 2431 709 
Q 2694 709 2930 787 
Q 3166 866 3366 1019 
L 3366 103 
Q 3103 6 2833 -42 
Q 2563 -91 2291 -91 
Q 1344 -91 809 395 
Q 275 881 275 1747 
Q 275 2613 809 3098 
Q 1344 3584 2291 3584 
Q 2566 3584 2833 3536 
Q 3100 3488 3366 3391 
z
" transform="scale(0.015625)"/>
     </defs>
     <use xlink:href="#DejaVuSans-Bold-28"/>
     <use xlink:href="#DejaVuSans-Bold-33" transform="translate(45.703125 0)"/>
     <use xlink:href="#DejaVuSans-Bold-4b" transform="translate(115.283203 0)"/>
     <use xlink:href="#DejaVuSans-Bold-20" transform="translate(192.773438 0)"/>
     <use xlink:href="#DejaVuSans-Bold-63" transform="translate(227.587891 0)"/>
     <use xlink:href="#DejaVuSans-Bold-65" transform="translate(286.865234 0)"/>
     <use xlink:href="#DejaVuSans-Bold-6c" transform="translate(354.6875 0)"/>
     <use xlink:href="#DejaVuSans-Bold-6c" transform="translate(388.964844 0)"/>
     <use xlink:href="#DejaVuSans-Bold-73" transform="translate(423.242188 0)"/>
     <use xlink:href="#DejaVuSans-Bold-29" transform="translate(482.763672 0)"/>
    </g>
   </g>
   <g id="text_4">
    <!-- ðŸ’Š Pharma Context -->
    <g transform="translate(598.169375 97.441406) scale(0.1 -0.1)">
     <defs>
      <path id="DejaVuSans-Bold-1f48a" d="M 319 -1131 
L 319 4513 
L 3519 4513 
L 3519 -1131 
L 319 -1131 
z
M 678 -775 
L 3163 -775 
L 3163 4153 
L 678 4153 
L 678 -775 
z
" transform="scale(0.015625)"/>
      <path id="DejaVuSans-Bold-68" d="M 4056 2131 
L 4056 0 
L 2931 0 
L 2931 347 
L 2931 1625 
Q 2931 2084 2911 2256 
Q 2891 2428 2841 2509 
Q 2775 2619 2662 2680 
Q 2550 2741 2406 2741 
Q 2056 2741 1856 2470 
Q 1656 2200 1656 1722 
L 1656 0 
L 538 0 
L 538 4863 
L 1656 4863 
L 1656 2988 
Q 1909 3294 2193 3439 
Q 2478 3584 2822 3584 
Q 3428 3584 3742 3212 
Q 4056 2841 4056 2131 
z
" transform="scale(0.015625)"/>
      <path id="DejaVuSans-Bold-72" d="M 3138 2547 
Q 2991 2616 2845 2648 
Q 2700 2681 2553 2681 
Q 2122 2681 1889 2404 
Q 1656 2128 1656 1613 
L 1656 0 
L 538 0 
L 538 3500 
L 1656 3500 
L 1656 2925 
Q 1872 3269 2151 3426 
Q 2431 3584 2822 3584 
Q 2878 3584 2943 3579 
Q 3009 3575 3134 3559 
L 3138 2547 
z
" transform="scale(0.015625)"/>
      <path id="DejaVuSans-Bold-6d" d="M 3781 2919 
Q 3994 3244 4286 3414 
Q 4578 3584 4928 3584 
Q 5531 3584 5847 3212 
Q 6163 2841 6163 2131 
L 6163 0 
L 5038 0 
L 5038 1825 
Q 5041 1866 5042 1909 
Q 5044 1953 5044 2034 
Q 5044 2406 4934 2573 
Q 4825 2741 4581 2741 
Q 4263 2741 4089 2478 
Q 3916 2216 3909 1719 
L 3909 0 
L 2784 0 
L 2784 1825 
Q 2784 2406 2684 2573 
Q 2584 2741 2328 2741 
Q 2006 2741 1831 2477 
Q 1656 2213 1656 1722 
L 1656 0 
L 531 0 
L 531 3500 
L 1656 3500 
L 1656 2988 
Q 1863 3284 2130 3434 
Q 2397 3584 2719 3584 
Q 3081 3584 3359 3409 
Q 3638 3234 3781 2919 
z
" transform="scale(0.015625)"/>
      <path id="DejaVuSans-Bold-6f" d="M 2203 2784 
Q 1831 2784 1636 2517 
Q 1441 2250 1441 1747 
Q 1441 1244 1636 976 
Q 1831 709 2203 709 
Q 2569 709 2762 976 
Q 2956 1244 2956 1747 
Q 2956 2250 2762 2517 
Q 2569 2784 2203 2784 
z
M 2203 3584 
Q 3106 3584 3614 3096 
Q 4122 2609 4122 1747 
Q 4122 884 3614 396 
Q 3106 -91 2203 -91 
Q 1297 -91 786 396 
Q 275 884 275 1747 
Q 275 2609 786 3096 
Q 1297 3584 2203 3584 
z
" transform="scale(0.015625)"/>
      <path id="DejaVuSans-Bold-78" d="M 1422 1791 
L 159 3500 
L 1344 3500 
L 2059 2463 
L 2784 3500 
L 3969 3500 
L 2706 1797 
L 4031 0 
L 2847 0 
L 2059 1106 
L 1281 0 
L 97 0 
L 1422 1791 
z
" transform="scale(0.015625)"/>
     </defs>
     <use xlink:href="#DejaVuSans-Bold-1f48a"/>
     <use xlink:href="#DejaVuSans-Bold-20" transform="translate(60.009766 0)"/>
     <use xlink:href="#DejaVuSans-Bold-50" transform="translate(94.824219 0)"/>
     <use xlink:href="#DejaVuSans-Bold-68" transform="translate(168.115234 0)"/>
     <use xlink:href="#DejaVuSans-Bold-61" transform="translate(239.306641 0)"/>
     <use xlink:href="#DejaVuSans-Bold-72" transform="translate(306.787109 0)"/>
     <use xlink:href="#DejaVuSans-Bold-6d" transform="translate(356.103516 0)"/>
     <use xlink:href="#DejaVuSans-Bold-61" transform="translate(460.302734 0)"/>
     <use xlink:href="#DejaVuSans-Bold-20" transform="translate(527.783203 0)"/>
     <use xlink:href="#DejaVuSans-Bold-43" transform="translate(562.597656 0)"/>
     <use xlink:href="#DejaVuSans-Bold-6f" transform="translate(635.986328 0)"/>
     <use xlink:href="#DejaVuSans-Bold-6e" transform="translate(704.6875 0)"/>
     <use xlink:href="#DejaVuSans-Bold-74" transform="translate(775.878906 0)"/>
     <use xlink:href="#DejaVuSans-Bold-65" transform="translate(823.681641 0)"/>
     <use xlink:href="#DejaVuSans-Bold-78" transform="translate(891.503906 0)"/>
     <use xlink:href="#DejaVuSans-Bold-74" transform="translate(956.005859 0)"/>
    </g>
    <!-- (Drug targets) -->
    <g transform="translate(607.72875 108.639219) scale(0.1 -0.1)">
     <defs>
      <path id="DejaVuSans-Bold-75" d="M 500 1363 
L 500 3500 
L 1625 3500 
L 1625 3150 
Q 1625 2866 1622 2436 
Q 1619 2006 1619 1863 
Q 1619 1441 1641 1255 
Q 1663 1069 1716 984 
Q 1784 875 1895 815 
Q 2006 756 2150 756 
Q 2500 756 2700 1025 
Q 2900 1294 2900 1772 
L 2900 3500 
L 4019 3500 
L 4019 0 
L 2900 0 
L 2900 506 
Q 2647 200 2364 54 
Q 2081 -91 1741 -91 
Q 1134 -91 817 281 
Q 500 653 500 1363 
z
" transform="scale(0.015625)"/>
     </defs>
     <use xlink:href="#DejaVuSans-Bold-28"/>
     <use xlink:href="#DejaVuSans-Bold-44" transform="translate(45.703125 0)"/>
     <use xlink:href="#DejaVuSans-Bold-72" transform="translate(128.710938 0)"/>
     <use xlink:href="#DejaVuSans-Bold-75" transform="translate(178.027344 0)"/>
     <use xlink:href="#DejaVuSans-Bold-67" transform="translate(249.21875 0)"/>
     <use xlink:href="#DejaVuSans-Bold-20" transform="translate(320.800781 0)"/>
     <use xlink:href="#DejaVuSans-Bold-74" transform="translate(355.615234 0)"/>
     <use xlink:href="#DejaVuSans-Bold-61" transform="translate(403.417969 0)"/>
     <use xlink:href="#DejaVuSans-Bold-72" transform="translate(470.898438 0)"/>
     <use xlink:href="#DejaVuSans-Bold-67" transform="translate(520.214844 0)"/>
     <use xlink:href="#DejaVuSans-Bold-65" transform="translate(591.796875 0)"/>
     <use xlink:href="#DejaVuSans-Bold-74" transform="translate(659.619141 0)"/>
     <use xlink:href="#DejaVuSans-Bold-73" transform="translate(707.421875 0)"/>
     <use xlink:href="#DejaVuSans-Bold-29" transform="translate(766.943359 0)"/>
    </g>
   </g>
   <g id="text_5">
    <!-- ðŸ§¹ Preprocessing -->
    <g transform="translate(282.877656 184.702344) scale(0.1 -0.1)">
     <defs>
      <path id="DejaVuSans-Bold-1f9f9" d="M 319 -1131 
L 319 4513 
L 3519 4513 
L 3519 -1131 
L 319 -1131 
z
M 678 -775 
L 3163 -775 
L 3163 4153 
L 678 4153 
L 678 -775 
z
" transform="scale(0.015625)"/>
     </defs>
     <use xlink:href="#DejaVuSans-Bold-1f9f9"/>
     <use xlink:href="#DejaVuSans-Bold-20" transform="translate(60.009766 0)"/>
     <use xlink:href="#DejaVuSans-Bold-50" transform="translate(94.824219 0)"/>
     <use xlink:href="#DejaVuSans-Bold-72" transform="translate(168.115234 0)"/>
     <use xlink:href="#DejaVuSans-Bold-65" transform="translate(217.431641 0)"/>
     <use xlink:href="#DejaVuSans-Bold-70" transform="translate(285.253906 0)"/>
     <use xlink:href="#DejaVuSans-Bold-72" transform="translate(356.835938 0)"/>
     <use xlink:href="#DejaVuSans-Bold-6f" transform="translate(406.152344 0)"/>
     <use xlink:href="#DejaVuSans-Bold-63" transform="translate(474.853516 0)"/>
     <use xlink:href="#DejaVuSans-Bold-65" transform="translate(534.130859 0)"/>
     <use xlink:href="#DejaVuSans-Bold-73" transform="translate(601.953125 0)"/>
     <use xlink:href="#DejaVuSans-Bold-73" transform="translate(661.474609 0)"/>
     <use xlink:href="#DejaVuSans-Bold-69" transform="translate(720.996094 0)"/>
     <use xlink:href="#DejaVuSans-Bold-6e" transform="translate(755.273438 0)"/>
     <use xlink:href="#DejaVuSans-Bold-67" transform="translate(826.464844 0)"/>
    </g>
    <!-- (QC, Filtering) -->
    <g transform="translate(287.706562 195.978281) scale(0.1 -0.1)">
     <defs>
      <path id="DejaVuSans-Bold-51" d="M 2847 -84 
L 2753 -84 
Q 1600 -84 959 553 
Q 319 1191 319 2328 
Q 319 3463 958 4106 
Q 1597 4750 2719 4750 
Q 3853 4750 4486 4112 
Q 5119 3475 5119 2328 
Q 5119 1541 4783 972 
Q 4447 403 3816 116 
L 4756 -934 
L 3609 -934 
L 2847 -84 
z
M 2719 3878 
Q 2169 3878 1866 3472 
Q 1563 3066 1563 2328 
Q 1563 1578 1859 1179 
Q 2156 781 2719 781 
Q 3272 781 3575 1187 
Q 3878 1594 3878 2328 
Q 3878 3066 3575 3472 
Q 3272 3878 2719 3878 
z
" transform="scale(0.015625)"/>
      <path id="DejaVuSans-Bold-46" d="M 588 4666 
L 3834 4666 
L 3834 3756 
L 1791 3756 
L 1791 2888 
L 3713 2888 
L 3713 1978 
L 1791 1978 
L 1791 0 
L 588 0 
L 588 4666 
z
" transform="scale(0.015625)"/>
     </defs>
     <use xlink:href="#DejaVuSans-Bold-28"/>
     <use xlink:href="#DejaVuSans-Bold-51" transform="translate(45.703125 0)"/>
     <use xlink:href="#DejaVuSans-Bold-43" transform="translate(130.712891 0)"/>
     <use xlink:href="#DejaVuSans-Bold-2c" transform="translate(204.101562 0)"/>
     <use xlink:href="#DejaVuSans-Bold-20" transform="translate(242.089844 0)"/>
     <use xlink:href="#DejaVuSans-Bold-46" transform="translate(276.904297 0)"/>
     <use xlink:href="#DejaVuSans-Bold-69" transform="translate(345.214844 0)"/>
     <use xlink:href="#DejaVuSans-Bold-6c" transform="translate(379.492188 0)"/>
     <use xlink:href="#DejaVuSans-Bold-74" transform="translate(413.769531 0)"/>
     <use xlink:href="#DejaVuSans-Bold-65" transform="translate(461.572266 0)"/>
     <use xlink:href="#DejaVuSans-Bold-72" transform="translate(529.394531 0)"/>
     <use xlink:href="#DejaVuSans-Bold-69" transform="translate(578.710938 0)"/>
     <use xlink:href="#DejaVuSans-Bold-6e" transform="translate(612.988281 0)"/>
     <use xlink:href="#DejaVuSans-Bold-67" transform="translate(684.179688 0)"/>
     <use xlink:href="#DejaVuSans-Bold-29" transform="translate(755.761719 0)"/>
    </g>
   </g>
   <g id="text_6">
    <!-- ðŸ“Š Normalization -->
    <g transform="translate(604.138125 184.741406) scale(0.1 -0.1)">
     <defs>
      <path id="DejaVuSans-Bold-1f4ca" d="M 319 -1131 
L 319 4513 
L 3519 4513 
L 3519 -1131 
L 319 -1131 
z
M 678 -775 
L 3163 -775 
L 3163 4153 
L 678 4153 
L 678 -775 
z
" transform="scale(0.015625)"/>
      <path id="DejaVuSans-Bold-7a" d="M 366 3500 
L 3419 3500 
L 3419 2719 
L 1575 800 
L 3419 800 
L 3419 0 
L 288 0 
L 288 781 
L 2131 2700 
L 366 2700 
L 366 3500 
z
" transform="scale(0.015625)"/>
     </defs>
     <use xlink:href="#DejaVuSans-Bold-1f4ca"/>
     <use xlink:href="#DejaVuSans-Bold-20" transform="translate(60.009766 0)"/>
     <use xlink:href="#DejaVuSans-Bold-4e" transform="translate(94.824219 0)"/>
     <use xlink:href="#DejaVuSans-Bold-6f" transform="translate(178.515625 0)"/>
     <use xlink:href="#DejaVuSans-Bold-72" transform="translate(247.216797 0)"/>
     <use xlink:href="#DejaVuSans-Bold-6d" transform="translate(296.533203 0)"/>
     <use xlink:href="#DejaVuSans-Bold-61" transform="translate(400.732422 0)"/>
     <use xlink:href="#DejaVuSans-Bold-6c" transform="translate(468.212891 0)"/>
     <use xlink:href="#DejaVuSans-Bold-69" transform="translate(502.490234 0)"/>
     <use xlink:href="#DejaVuSans-Bold-7a" transform="translate(536.767578 0)"/>
     <use xlink:href="#DejaVuSans-Bold-61" transform="translate(594.970703 0)"/>
     <use xlink:href="#DejaVuSans-Bold-74" transform="translate(662.451172 0)"/>
     <use xlink:href="#DejaVuSans-Bold-69" transform="translate(710.253906 0)"/>
     <use xlink:href="#DejaVuSans-Bold-6f" transform="translate(744.53125 0)"/>
     <use xlink:href="#DejaVuSans-Bold-6e" transform="translate(813.232422 0)"/>
    </g>
    <!-- (Log, Scale) -->
    <g transform="translate(614.905313 195.939219) scale(0.1 -0.1)">
     <defs>
      <path id="DejaVuSans-Bold-4c" d="M 588 4666 
L 1791 4666 
L 1791 909 
L 3903 909 
L 3903 0 
L 588 0 
L 588 4666 
z
" transform="scale(0.015625)"/>
     </defs>
     <use xlink:href="#DejaVuSans-Bold-28"/>
     <use xlink:href="#DejaVuSans-Bold-4c" transform="translate(45.703125 0)"/>
     <use xlink:href="#DejaVuSans-Bold-6f" transform="translate(109.423828 0)"/>
     <use xlink:href="#DejaVuSans-Bold-67" transform="translate(178.125 0)"/>
     <use xlink:href="#DejaVuSans-Bold-2c" transform="translate(249.707031 0)"/>
     <use xlink:href="#DejaVuSans-Bold-20" transform="translate(287.695312 0)"/>
     <use xlink:href="#DejaVuSans-Bold-53" transform="translate(322.509766 0)"/>
     <use xlink:href="#DejaVuSans-Bold-63" transform="translate(394.53125 0)"/>
     <use xlink:href="#DejaVuSans-Bold-61" transform="translate(453.808594 0)"/>
     <use xlink:href="#DejaVuSans-Bold-6c" transform="translate(521.289062 0)"/>
     <use xlink:href="#DejaVuSans-Bold-65" transform="translate(555.566406 0)"/>
     <use xlink:href="#DejaVuSans-Bold-29" transform="translate(623.388672 0)"/>
    </g>
   </g>
   <g id="text_7">
    <!-- ðŸŽ¯ Feature Selection -->
    <g transform="translate(199.370312 272.080469) scale(0.1 -0.1)">
     <defs>
      <path id="DejaVuSans-Bold-1f3af" d="M 319 -1131 
L 319 4513 
L 3519 4513 
L 3519 -1131 
L 319 -1131 
z
M 678 -775 
L 3163 -775 
L 3163 4153 
L 678 4153 
L 678 -775 
z
" transform="scale(0.015625)"/>
     </defs>
     <use xlink:href="#DejaVuSans-Bold-1f3af"/>
     <use xlink:href="#DejaVuSans-Bold-20" transform="translate(60.009766 0)"/>
     <use xlink:href="#DejaVuSans-Bold-46" transform="translate(94.824219 0)"/>
     <use xlink:href="#DejaVuSans-Bold-65" transform="translate(159.134766 0)"/>
     <use xlink:href="#DejaVuSans-Bold-61" transform="translate(226.957031 0)"/>
     <use xlink:href="#DejaVuSans-Bold-74" transform="translate(294.4375 0)"/>
     <use xlink:href="#DejaVuSans-Bold-75" transform="translate(342.240234 0)"/>
     <use xlink:href="#DejaVuSans-Bold-72" transform="translate(413.431641 0)"/>
     <use xlink:href="#DejaVuSans-Bold-65" transform="translate(462.748047 0)"/>
     <use xlink:href="#DejaVuSans-Bold-20" transform="translate(530.570312 0)"/>
     <use xlink:href="#DejaVuSans-Bold-53" transform="translate(565.384766 0)"/>
     <use xlink:href="#DejaVuSans-Bold-65" transform="translate(637.40625 0)"/>
     <use xlink:href="#DejaVuSans-Bold-6c" transform="translate(705.228516 0)"/>
     <use xlink:href="#DejaVuSans-Bold-65" transform="translate(739.505859 0)"/>
     <use xlink:href="#DejaVuSans-Bold-63" transform="translate(807.328125 0)"/>
     <use xlink:href="#DejaVuSans-Bold-74" transform="translate(866.605469 0)"/>
     <use xlink:href="#DejaVuSans-Bold-69" transform="translate(914.408203 0)"/>
     <use xlink:href="#DejaVuSans-Bold-6f" transform="translate(948.685547 0)"/>
     <use xlink:href="#DejaVuSans-Bold-6e" transform="translate(1017.386719 0)"/>
    </g>
    <!-- (HVGs, PCA) -->
    <g transform="translate(219.252344 283.278281) scale(0.1 -0.1)">
     <defs>
      <path id="DejaVuSans-Bold-47" d="M 4781 347 
Q 4331 128 3847 18 
Q 3363 -91 2847 -91 
Q 1681 -91 1000 561 
Q 319 1213 319 2328 
Q 319 3456 1012 4103 
Q 1706 4750 2913 4750 
Q 3378 4750 3804 4662 
Q 4231 4575 4609 4403 
L 4609 3438 
Q 4219 3659 3833 3768 
Q 3447 3878 3059 3878 
Q 2341 3878 1952 3476 
Q 1563 3075 1563 2328 
Q 1563 1588 1938 1184 
Q 2313 781 3003 781 
Q 3191 781 3352 804 
Q 3513 828 3641 878 
L 3641 1784 
L 2906 1784 
L 2906 2591 
L 4781 2591 
L 4781 347 
z
" transform="scale(0.015625)"/>
     </defs>
     <use xlink:href="#DejaVuSans-Bold-28"/>
     <use xlink:href="#DejaVuSans-Bold-48" transform="translate(45.703125 0)"/>
     <use xlink:href="#DejaVuSans-Bold-56" transform="translate(129.394531 0)"/>
     <use xlink:href="#DejaVuSans-Bold-47" transform="translate(206.787109 0)"/>
     <use xlink:href="#DejaVuSans-Bold-73" transform="translate(288.867188 0)"/>
     <use xlink:href="#DejaVuSans-Bold-2c" transform="translate(348.388672 0)"/>
     <use xlink:href="#DejaVuSans-Bold-20" transform="translate(386.376953 0)"/>
     <use xlink:href="#DejaVuSans-Bold-50" transform="translate(421.191406 0)"/>
     <use xlink:href="#DejaVuSans-Bold-43" transform="translate(494.482422 0)"/>
     <use xlink:href="#DejaVuSans-Bold-41" transform="translate(567.871094 0)"/>
     <use xlink:href="#DejaVuSans-Bold-29" transform="translate(645.263672 0)"/>
    </g>
   </g>
   <g id="text_8">
    <!-- ðŸ”„ Dataset Creation -->
    <g transform="translate(571.172656 272.080469) scale(0.1 -0.1)">
     <defs>
      <path id="DejaVuSans-Bold-1f504" d="M 319 -1131 
L 319 4513 
L 3519 4513 
L 3519 -1131 
L 319 -1131 
z
M 678 -775 
L 3163 -775 
L 3163 4153 
L 678 4153 
L 678 -775 
z
" transform="scale(0.015625)"/>
     </defs>
     <use xlink:href="#DejaVuSans-Bold-1f504"/>
     <use xlink:href="#DejaVuSans-Bold-20" transform="translate(60.009766 0)"/>
     <use xlink:href="#DejaVuSans-Bold-44" transform="translate(94.824219 0)"/>
     <use xlink:href="#DejaVuSans-Bold-61" transform="translate(177.832031 0)"/>
     <use xlink:href="#DejaVuSans-Bold-74" transform="translate(245.3125 0)"/>
     <use xlink:href="#DejaVuSans-Bold-61" transform="translate(293.115234 0)"/>
     <use xlink:href="#DejaVuSans-Bold-73" transform="translate(360.595703 0)"/>
     <use xlink:href="#DejaVuSans-Bold-65" transform="translate(420.117188 0)"/>
     <use xlink:href="#DejaVuSans-Bold-74" transform="translate(487.939453 0)"/>
     <use xlink:href="#DejaVuSans-Bold-20" transform="translate(535.742188 0)"/>
     <use xlink:href="#DejaVuSans-Bold-43" transform="translate(570.556641 0)"/>
     <use xlink:href="#DejaVuSans-Bold-72" transform="translate(643.945312 0)"/>
     <use xlink:href="#DejaVuSans-Bold-65" transform="translate(693.261719 0)"/>
     <use xlink:href="#DejaVuSans-Bold-61" transform="translate(761.083984 0)"/>
     <use xlink:href="#DejaVuSans-Bold-74" transform="translate(828.564453 0)"/>
     <use xlink:href="#DejaVuSans-Bold-69" transform="translate(876.367188 0)"/>
     <use xlink:href="#DejaVuSans-Bold-6f" transform="translate(910.644531 0)"/>
     <use xlink:href="#DejaVuSans-Bold-6e" transform="translate(979.345703 0)"/>
    </g>
    <!-- (Train/Val Split) -->
    <g transform="translate(579.907813 283.278281) scale(0.1 -0.1)">
     <defs>
      <path id="DejaVuSans-Bold-54" d="M 31 4666 
L 4331 4666 
L 4331 3756 
L 2784 3756 
L 2784 0 
L 1581 0 
L 1581 3756 
L 31 3756 
L 31 4666 
z
" transform="scale(0.015625)"/>
      <path id="DejaVuSans-Bold-2f" d="M 1644 4666 
L 2338 4666 
L 691 -594 
L 0 -594 
L 1644 4666 
z
" transform="scale(0.015625)"/>
     </defs>
     <use xlink:href="#DejaVuSans-Bold-28"/>
     <use xlink:href="#DejaVuSans-Bold-54" transform="translate(45.703125 0)"/>
     <use xlink:href="#DejaVuSans-Bold-72" transform="translate(102.916016 0)"/>
     <use xlink:href="#DejaVuSans-Bold-61" transform="translate(152.232422 0)"/>
     <use xlink:href="#DejaVuSans-Bold-69" transform="translate(219.712891 0)"/>
     <use xlink:href="#DejaVuSans-Bold-6e" transform="translate(253.990234 0)"/>
     <use xlink:href="#DejaVuSans-Bold-2f" transform="translate(325.181641 0)"/>
     <use xlink:href="#DejaVuSans-Bold-56" transform="translate(361.705078 0)"/>
     <use xlink:href="#DejaVuSans-Bold-61" transform="translate(433.597656 0)"/>
     <use xlink:href="#DejaVuSans-Bold-6c" transform="translate(501.078125 0)"/>
     <use xlink:href="#DejaVuSans-Bold-20" transform="translate(535.355469 0)"/>
     <use xlink:href="#DejaVuSans-Bold-53" transform="translate(570.169922 0)"/>
     <use xlink:href="#DejaVuSans-Bold-70" transform="translate(642.191406 0)"/>
     <use xlink:href="#DejaVuSans-Bold-6c" transform="translate(713.773438 0)"/>
     <use xlink:href="#DejaVuSans-Bold-69" transform="translate(748.050781 0)"/>
     <use xlink:href="#DejaVuSans-Bold-74" transform="translate(782.328125 0)"/>
     <use xlink:href="#DejaVuSans-Bold-29" transform="translate(830.130859 0)"/>
    </g>
   </g>
   <g id="text_9">
    <!-- ðŸ§  scVAE Training -->
    <g transform="translate(306.374375 359.302344) scale(0.1 -0.1)">
     <defs>
      <path id="DejaVuSans-Bold-1f9e0" d="M 319 -1131 
L 319 4513 
L 3519 4513 
L 3519 -1131 
L 319 -1131 
z
M 678 -775 
L 3163 -775 
L 3163 4153 
L 678 4153 
L 678 -775 
z
" transform="scale(0.015625)"/>
      <path id="DejaVuSans-Bold-45" d="M 588 4666 
L 3834 4666 
L 3834 3756 
L 1791 3756 
L 1791 2888 
L 3713 2888 
L 3713 1978 
L 1791 1978 
L 1791 909 
L 3903 909 
L 3903 0 
L 588 0 
L 588 4666 
z
" transform="scale(0.015625)"/>
     </defs>
     <use xlink:href="#DejaVuSans-Bold-1f9e0"/>
     <use xlink:href="#DejaVuSans-Bold-20" transform="translate(60.009766 0)"/>
     <use xlink:href="#DejaVuSans-Bold-73" transform="translate(94.824219 0)"/>
     <use xlink:href="#DejaVuSans-Bold-63" transform="translate(154.345703 0)"/>
     <use xlink:href="#DejaVuSans-Bold-56" transform="translate(213.623047 0)"/>
     <use xlink:href="#DejaVuSans-Bold-41" transform="translate(284.265625 0)"/>
     <use xlink:href="#DejaVuSans-Bold-45" transform="translate(361.658203 0)"/>
     <use xlink:href="#DejaVuSans-Bold-20" transform="translate(429.96875 0)"/>
     <use xlink:href="#DejaVuSans-Bold-54" transform="translate(464.783203 0)"/>
     <use xlink:href="#DejaVuSans-Bold-72" transform="translate(521.996094 0)"/>
     <use xlink:href="#DejaVuSans-Bold-61" transform="translate(571.3125 0)"/>
     <use xlink:href="#DejaVuSans-Bold-69" transform="translate(638.792969 0)"/>
     <use xlink:href="#DejaVuSans-Bold-6e" transform="translate(673.070312 0)"/>
     <use xlink:href="#DejaVuSans-Bold-69" transform="translate(744.261719 0)"/>
     <use xlink:href="#DejaVuSans-Bold-6e" transform="translate(778.539062 0)"/>
     <use xlink:href="#DejaVuSans-Bold-67" transform="translate(849.730469 0)"/>
    </g>
    <!-- (PyTorch Lightning) -->
    <g transform="translate(297.098594 370.578281) scale(0.1 -0.1)">
     <use xlink:href="#DejaVuSans-Bold-28"/>
     <use xlink:href="#DejaVuSans-Bold-50" transform="translate(45.703125 0)"/>
     <use xlink:href="#DejaVuSans-Bold-79" transform="translate(120.869141 0)"/>
     <use xlink:href="#DejaVuSans-Bold-54" transform="translate(186.054688 0)"/>
     <use xlink:href="#DejaVuSans-Bold-6f" transform="translate(241.017578 0)"/>
     <use xlink:href="#DejaVuSans-Bold-72" transform="translate(309.71875 0)"/>
     <use xlink:href="#DejaVuSans-Bold-63" transform="translate(359.035156 0)"/>
     <use xlink:href="#DejaVuSans-Bold-68" transform="translate(418.3125 0)"/>
     <use xlink:href="#DejaVuSans-Bold-20" transform="translate(489.503906 0)"/>
     <use xlink:href="#DejaVuSans-Bold-4c" transform="translate(524.318359 0)"/>
     <use xlink:href="#DejaVuSans-Bold-69" transform="translate(588.039062 0)"/>
     <use xlink:href="#DejaVuSans-Bold-67" transform="translate(622.316406 0)"/>
     <use xlink:href="#DejaVuSans-Bold-68" transform="translate(693.898438 0)"/>
     <use xlink:href="#DejaVuSans-Bold-74" transform="translate(765.089844 0)"/>
     <use xlink:href="#DejaVuSans-Bold-6e" transform="translate(812.892578 0)"/>
     <use xlink:href="#DejaVuSans-Bold-69" transform="translate(884.083984 0)"/>
     <use xlink:href="#DejaVuSans-Bold-6e" transform="translate(918.361328 0)"/>
     <use xlink:href="#DejaVuSans-Bold-67" transform="translate(989.552734 0)"/>
     <use xlink:href="#DejaVuSans-Bold-29" transform="translate(1061.134766 0)"/>
    </g>
   </g>
   <g id="text_10">
    <!-- âš¡ GPU -->
    <g transform="translate(655.939531 359.380469) scale(0.1 -0.1)">
     <defs>
      <path id="DejaVuSans-Bold-26a1" d="M 3853 4675 
L 3897 4675 
L 3963 4609 
L 3963 4588 
L 2006 2894 
Q 2006 2672 2291 2672 
Q 3500 2413 3500 2369 
L 3522 2147 
L 575 13 
L 531 78 
L 531 100 
Q 2553 1972 2553 2013 
Q 2553 2234 2181 2234 
Q 1041 2466 991 2519 
L 969 2741 
L 3853 4675 
z
" transform="scale(0.015625)"/>
      <path id="DejaVuSans-Bold-55" d="M 588 4666 
L 1791 4666 
L 1791 1869 
Q 1791 1291 1980 1042 
Q 2169 794 2597 794 
Q 3028 794 3217 1042 
Q 3406 1291 3406 1869 
L 3406 4666 
L 4609 4666 
L 4609 1869 
Q 4609 878 4112 393 
Q 3616 -91 2597 -91 
Q 1581 -91 1084 393 
Q 588 878 588 1869 
L 588 4666 
z
" transform="scale(0.015625)"/>
     </defs>
     <use xlink:href="#DejaVuSans-Bold-26a1"/>
     <use xlink:href="#DejaVuSans-Bold-20" transform="translate(70.214844 0)"/>
     <use xlink:href="#DejaVuSans-Bold-47" transform="translate(105.029297 0)"/>
     <use xlink:href="#DejaVuSans-Bold-50" transform="translate(187.109375 0)"/>
     <use xlink:href="#DejaVuSans-Bold-55" transform="translate(260.400391 0)"/>
    </g>
    <!-- Acceleration -->
    <g transform="translate(637.787188 370.578281) scale(0.1 -0.1)">
     <use xlink:href="#DejaVuSans-Bold-41"/>
     <use xlink:href="#DejaVuSans-Bold-63" transform="translate(77.392578 0)"/>
     <use xlink:href="#DejaVuSans-Bold-63" transform="translate(136.669922 0)"/>
     <use xlink:href="#DejaVuSans-Bold-65" transform="translate(195.947266 0)"/>
     <use xlink:href="#DejaVuSans-Bold-6c" transform="translate(263.769531 0)"/>
     <use xlink:href="#DejaVuSans-Bold-65" transform="translate(298.046875 0)"/>
     <use xlink:href="#DejaVuSans-Bold-72" transform="translate(365.869141 0)"/>
     <use xlink:href="#DejaVuSans-Bold-61" transform="translate(415.185547 0)"/>
     <use xlink:href="#DejaVuSans-Bold-74" transform="translate(482.666016 0)"/>
     <use xlink:href="#DejaVuSans-Bold-69" transform="translate(530.46875 0)"/>
     <use xlink:href="#DejaVuSans-Bold-6f" transform="translate(564.746094 0)"/>
     <use xlink:href="#DejaVuSans-Bold-6e" transform="translate(633.447266 0)"/>
    </g>
   </g>
   <g id="text_11">
    <!-- ðŸ“ˆ Evaluation -->
    <g transform="translate(120.623281 446.680469) scale(0.1 -0.1)">
     <defs>
      <path id="DejaVuSans-Bold-1f4c8" d="M 319 -1131 
L 319 4513 
L 3519 4513 
L 3519 -1131 
L 319 -1131 
z
M 678 -775 
L 3163 -775 
L 3163 4153 
L 678 4153 
L 678 -775 
z
" transform="scale(0.015625)"/>
      <path id="DejaVuSans-Bold-76" d="M 97 3500 
L 1216 3500 
L 2088 1081 
L 2956 3500 
L 4078 3500 
L 2700 0 
L 1472 0 
L 97 3500 
z
" transform="scale(0.015625)"/>
     </defs>
     <use xlink:href="#DejaVuSans-Bold-1f4c8"/>
     <use xlink:href="#DejaVuSans-Bold-20" transform="translate(60.009766 0)"/>
     <use xlink:href="#DejaVuSans-Bold-45" transform="translate(94.824219 0)"/>
     <use xlink:href="#DejaVuSans-Bold-76" transform="translate(163.134766 0)"/>
     <use xlink:href="#DejaVuSans-Bold-61" transform="translate(228.320312 0)"/>
     <use xlink:href="#DejaVuSans-Bold-6c" transform="translate(295.800781 0)"/>
     <use xlink:href="#DejaVuSans-Bold-75" transform="translate(330.078125 0)"/>
     <use xlink:href="#DejaVuSans-Bold-61" transform="translate(401.269531 0)"/>
     <use xlink:href="#DejaVuSans-Bold-74" transform="translate(468.75 0)"/>
     <use xlink:href="#DejaVuSans-Bold-69" transform="translate(516.552734 0)"/>
     <use xlink:href="#DejaVuSans-Bold-6f" transform="translate(550.830078 0)"/>
     <use xlink:href="#DejaVuSans-Bold-6e" transform="translate(619.53125 0)"/>
    </g>
    <!-- (Metrics) -->
    <g transform="translate(129.713125 457.878281) scale(0.1 -0.1)">
     <use xlink:href="#DejaVuSans-Bold-28"/>
     <use xlink:href="#DejaVuSans-Bold-4d" transform="translate(45.703125 0)"/>
     <use xlink:href="#DejaVuSans-Bold-65" transform="translate(145.214844 0)"/>
     <use xlink:href="#DejaVuSans-Bold-74" transform="translate(213.037109 0)"/>
     <use xlink:href="#DejaVuSans-Bold-72" transform="translate(260.839844 0)"/>
     <use xlink:href="#DejaVuSans-Bold-69" transform="translate(310.15625 0)"/>
     <use xlink:href="#DejaVuSans-Bold-63" transform="translate(344.433594 0)"/>
     <use xlink:href="#DejaVuSans-Bold-73" transform="translate(403.710938 0)"/>
     <use xlink:href="#DejaVuSans-Bold-29" transform="translate(463.232422 0)"/>
    </g>
   </g>
   <g id="text_12">
    <!-- ðŸŽ¨ Latent Space -->
    <g transform="translate(360.077969 446.680469) scale(0.1 -0.1)">
     <defs>
      <path id="DejaVuSans-Bold-1f3a8" d="M 319 -1131 
L 319 4513 
L 3519 4513 
L 3519 -1131 
L 319 -1131 
z
M 678 -775 
L 3163 -775 
L 3163 4153 
L 678 4153 
L 678 -775 
z
" transform="scale(0.015625)"/>
     </defs>
     <use xlink:href="#DejaVuSans-Bold-1f3a8"/>
     <use xlink:href="#DejaVuSans-Bold-20" transform="translate(60.009766 0)"/>
     <use xlink:href="#DejaVuSans-Bold-4c" transform="translate(94.824219 0)"/>
     <use xlink:href="#DejaVuSans-Bold-61" transform="translate(158.544922 0)"/>
     <use xlink:href="#DejaVuSans-Bold-74" transform="translate(226.025391 0)"/>
     <use xlink:href="#DejaVuSans-Bold-65" transform="translate(273.828125 0)"/>
     <use xlink:href="#DejaVuSans-Bold-6e" transform="translate(341.650391 0)"/>
     <use xlink:href="#DejaVuSans-Bold-74" transform="translate(412.841797 0)"/>
     <use xlink:href="#DejaVuSans-Bold-20" transform="translate(460.644531 0)"/>
     <use xlink:href="#DejaVuSans-Bold-53" transform="translate(495.458984 0)"/>
     <use xlink:href="#DejaVuSans-Bold-70" transform="translate(567.480469 0)"/>
     <use xlink:href="#DejaVuSans-Bold-61" transform="translate(639.0625 0)"/>
     <use xlink:href="#DejaVuSans-Bold-63" transform="translate(706.542969 0)"/>
     <use xlink:href="#DejaVuSans-Bold-65" transform="translate(765.820312 0)"/>
    </g>
    <!-- (UMAP/t-SNE) -->
    <g transform="translate(363.127187 457.878281) scale(0.1 -0.1)">
     <use xlink:href="#DejaVuSans-Bold-28"/>
     <use xlink:href="#DejaVuSans-Bold-55" transform="translate(45.703125 0)"/>
     <use xlink:href="#DejaVuSans-Bold-4d" transform="translate(126.904297 0)"/>
     <use xlink:href="#DejaVuSans-Bold-41" transform="translate(226.416016 0)"/>
     <use xlink:href="#DejaVuSans-Bold-50" transform="translate(303.808594 0)"/>
     <use xlink:href="#DejaVuSans-Bold-2f" transform="translate(377.099609 0)"/>
     <use xlink:href="#DejaVuSans-Bold-74" transform="translate(413.623047 0)"/>
     <use xlink:href="#DejaVuSans-Bold-2d" transform="translate(461.425781 0)"/>
     <use xlink:href="#DejaVuSans-Bold-53" transform="translate(502.929688 0)"/>
     <use xlink:href="#DejaVuSans-Bold-4e" transform="translate(574.951172 0)"/>
     <use xlink:href="#DejaVuSans-Bold-45" transform="translate(658.642578 0)"/>
     <use xlink:href="#DejaVuSans-Bold-29" transform="translate(726.953125 0)"/>
    </g>
   </g>
   <g id="text_13">
    <!-- ðŸ” Cell Types -->
    <g transform="translate(615.36625 446.641406) scale(0.1 -0.1)">
     <defs>
      <path id="DejaVuSans-Bold-1f50d" d="M 319 -1131 
L 319 4513 
L 3519 4513 
L 3519 -1131 
L 319 -1131 
z
M 678 -775 
L 3163 -775 
L 3163 4153 
L 678 4153 
L 678 -775 
z
" transform="scale(0.015625)"/>
     </defs>
     <use xlink:href="#DejaVuSans-Bold-1f50d"/>
     <use xlink:href="#DejaVuSans-Bold-20" transform="translate(60.009766 0)"/>
     <use xlink:href="#DejaVuSans-Bold-43" transform="translate(94.824219 0)"/>
     <use xlink:href="#DejaVuSans-Bold-65" transform="translate(168.212891 0)"/>
     <use xlink:href="#DejaVuSans-Bold-6c" transform="translate(236.035156 0)"/>
     <use xlink:href="#DejaVuSans-Bold-6c" transform="translate(270.3125 0)"/>
     <use xlink:href="#DejaVuSans-Bold-20" transform="translate(304.589844 0)"/>
     <use xlink:href="#DejaVuSans-Bold-54" transform="translate(339.404297 0)"/>
     <use xlink:href="#DejaVuSans-Bold-79" transform="translate(395.742188 0)"/>
     <use xlink:href="#DejaVuSans-Bold-70" transform="translate(460.927734 0)"/>
     <use xlink:href="#DejaVuSans-Bold-65" transform="translate(532.509766 0)"/>
     <use xlink:href="#DejaVuSans-Bold-73" transform="translate(600.332031 0)"/>
    </g>
    <!-- (Classification) -->
    <g transform="translate(606.040469 457.917344) scale(0.1 -0.1)">
     <defs>
      <path id="DejaVuSans-Bold-66" d="M 2841 4863 
L 2841 4128 
L 2222 4128 
Q 1984 4128 1890 4042 
Q 1797 3956 1797 3744 
L 1797 3500 
L 2753 3500 
L 2753 2700 
L 1797 2700 
L 1797 0 
L 678 0 
L 678 2700 
L 122 2700 
L 122 3500 
L 678 3500 
L 678 3744 
Q 678 4316 997 4589 
Q 1316 4863 1984 4863 
L 2841 4863 
z
" transform="scale(0.015625)"/>
     </defs>
     <use xlink:href="#DejaVuSans-Bold-28"/>
     <use xlink:href="#DejaVuSans-Bold-43" transform="translate(45.703125 0)"/>
     <use xlink:href="#DejaVuSans-Bold-6c" transform="translate(119.091797 0)"/>
     <use xlink:href="#DejaVuSans-Bold-61" transform="translate(153.369141 0)"/>
     <use xlink:href="#DejaVuSans-Bold-73" transform="translate(220.849609 0)"/>
     <use xlink:href="#DejaVuSans-Bold-73" transform="translate(280.371094 0)"/>
     <use xlink:href="#DejaVuSans-Bold-69" transform="translate(339.892578 0)"/>
     <use xlink:href="#DejaVuSans-Bold-66" transform="translate(374.169922 0)"/>
     <use xlink:href="#DejaVuSans-Bold-69" transform="translate(417.675781 0)"/>
     <use xlink:href="#DejaVuSans-Bold-63" transform="translate(451.953125 0)"/>
     <use xlink:href="#DejaVuSans-Bold-61" transform="translate(511.230469 0)"/>
     <use xlink:href="#DejaVuSans-Bold-74" transform="translate(578.710938 0)"/>
     <use xlink:href="#DejaVuSans-Bold-69" transform="translate(626.513672 0)"/>
     <use xlink:href="#DejaVuSans-Bold-6f" transform="translate(660.791016 0)"/>
     <use xlink:href="#DejaVuSans-Bold-6e" transform="translate(729.492188 0)"/>
     <use xlink:href="#DejaVuSans-Bold-29" transform="translate(800.683594 0)"/>
    </g>
   </g>
   <g id="text_14">
    <!-- ðŸ“Š Visualizations -->
    <g transform="translate(160.546406 533.980469) scale(0.1 -0.1)">
     <use xlink:href="#DejaVuSans-Bold-1f4ca"/>
     <use xlink:href="#DejaVuSans-Bold-20" transform="translate(60.009766 0)"/>
     <use xlink:href="#DejaVuSans-Bold-56" transform="translate(94.824219 0)"/>
     <use xlink:href="#DejaVuSans-Bold-69" transform="translate(170.466797 0)"/>
     <use xlink:href="#DejaVuSans-Bold-73" transform="translate(204.744141 0)"/>
     <use xlink:href="#DejaVuSans-Bold-75" transform="translate(264.265625 0)"/>
     <use xlink:href="#DejaVuSans-Bold-61" transform="translate(335.457031 0)"/>
     <use xlink:href="#DejaVuSans-Bold-6c" transform="translate(402.9375 0)"/>
     <use xlink:href="#DejaVuSans-Bold-69" transform="translate(437.214844 0)"/>
     <use xlink:href="#DejaVuSans-Bold-7a" transform="translate(471.492188 0)"/>
     <use xlink:href="#DejaVuSans-Bold-61" transform="translate(529.695312 0)"/>
     <use xlink:href="#DejaVuSans-Bold-74" transform="translate(597.175781 0)"/>
     <use xlink:href="#DejaVuSans-Bold-69" transform="translate(644.978516 0)"/>
     <use xlink:href="#DejaVuSans-Bold-6f" transform="translate(679.255859 0)"/>
     <use xlink:href="#DejaVuSans-Bold-6e" transform="translate(747.957031 0)"/>
     <use xlink:href="#DejaVuSans-Bold-73" transform="translate(819.148438 0)"/>
    </g>
    <!-- (Plots, Heatmaps) -->
    <g transform="translate(153.61125 545.178281) scale(0.1 -0.1)">
     <use xlink:href="#DejaVuSans-Bold-28"/>
     <use xlink:href="#DejaVuSans-Bold-50" transform="translate(45.703125 0)"/>
     <use xlink:href="#DejaVuSans-Bold-6c" transform="translate(118.994141 0)"/>
     <use xlink:href="#DejaVuSans-Bold-6f" transform="translate(153.271484 0)"/>
     <use xlink:href="#DejaVuSans-Bold-74" transform="translate(221.972656 0)"/>
     <use xlink:href="#DejaVuSans-Bold-73" transform="translate(269.775391 0)"/>
     <use xlink:href="#DejaVuSans-Bold-2c" transform="translate(329.296875 0)"/>
     <use xlink:href="#DejaVuSans-Bold-20" transform="translate(367.285156 0)"/>
     <use xlink:href="#DejaVuSans-Bold-48" transform="translate(402.099609 0)"/>
     <use xlink:href="#DejaVuSans-Bold-65" transform="translate(485.791016 0)"/>
     <use xlink:href="#DejaVuSans-Bold-61" transform="translate(553.613281 0)"/>
     <use xlink:href="#DejaVuSans-Bold-74" transform="translate(621.09375 0)"/>
     <use xlink:href="#DejaVuSans-Bold-6d" transform="translate(668.896484 0)"/>
     <use xlink:href="#DejaVuSans-Bold-61" transform="translate(773.095703 0)"/>
     <use xlink:href="#DejaVuSans-Bold-70" transform="translate(840.576172 0)"/>
     <use xlink:href="#DejaVuSans-Bold-73" transform="translate(912.158203 0)"/>
     <use xlink:href="#DejaVuSans-Bold-29" transform="translate(971.679688 0)"/>
    </g>
   </g>
   <g id="text_15">
    <!-- ðŸ’¾ Results Export -->
    <g transform="translate(454.551562 533.980469) scale(0.1 -0.1)">
     <defs>
      <path id="DejaVuSans-Bold-1f4be" d="M 319 -1131 
L 319 4513 
L 3519 4513 
L 3519 -1131 
L 319 -1131 
z
M 678 -775 
L 3163 -775 
L 3163 4153 
L 678 4153 
L 678 -775 
z
" transform="scale(0.015625)"/>
     </defs>
     <use xlink:href="#DejaVuSans-Bold-1f4be"/>
     <use xlink:href="#DejaVuSans-Bold-20" transform="translate(60.009766 0)"/>
     <use xlink:href="#DejaVuSans-Bold-52" transform="translate(94.824219 0)"/>
     <use xlink:href="#DejaVuSans-Bold-65" transform="translate(171.826172 0)"/>
     <use xlink:href="#DejaVuSans-Bold-73" transform="translate(239.648438 0)"/>
     <use xlink:href="#DejaVuSans-Bold-75" transform="translate(299.169922 0)"/>
     <use xlink:href="#DejaVuSans-Bold-6c" transform="translate(370.361328 0)"/>
     <use xlink:href="#DejaVuSans-Bold-74" transform="translate(404.638672 0)"/>
     <use xlink:href="#DejaVuSans-Bold-73" transform="translate(452.441406 0)"/>
     <use xlink:href="#DejaVuSans-Bold-20" transform="translate(511.962891 0)"/>
     <use xlink:href="#DejaVuSans-Bold-45" transform="translate(546.777344 0)"/>
     <use xlink:href="#DejaVuSans-Bold-78" transform="translate(615.087891 0)"/>
     <use xlink:href="#DejaVuSans-Bold-70" transform="translate(679.589844 0)"/>
     <use xlink:href="#DejaVuSans-Bold-6f" transform="translate(751.171875 0)"/>
     <use xlink:href="#DejaVuSans-Bold-72" transform="translate(819.873047 0)"/>
     <use xlink:href="#DejaVuSans-Bold-74" transform="translate(869.189453 0)"/>
    </g>
    <!-- (H5AD, CSV) -->
    <g transform="translate(465.272656 545.178281) scale(0.1 -0.1)">
     <use xlink:href="#DejaVuSans-Bold-28"/>
     <use xlink:href="#DejaVuSans-Bold-48" transform="translate(45.703125 0)"/>
     <use xlink:href="#DejaVuSans-Bold-35" transform="translate(129.394531 0)"/>
     <use xlink:href="#DejaVuSans-Bold-41" transform="translate(198.974609 0)"/>
     <use xlink:href="#DejaVuSans-Bold-44" transform="translate(276.367188 0)"/>
     <use xlink:href="#DejaVuSans-Bold-2c" transform="translate(359.375 0)"/>
     <use xlink:href="#DejaVuSans-Bold-20" transform="translate(397.363281 0)"/>
     <use xlink:href="#DejaVuSans-Bold-43" transform="translate(432.177734 0)"/>
     <use xlink:href="#DejaVuSans-Bold-53" transform="translate(507.441406 0)"/>
     <use xlink:href="#DejaVuSans-Bold-56" transform="translate(579.462891 0)"/>
     <use xlink:href="#DejaVuSans-Bold-29" transform="translate(656.855469 0)"/>
    </g>
   </g>
   <g id="text_16">
    <!-- ðŸ“‹ Reports -->
    <g transform="translate(720.171875 533.941406) scale(0.1 -0.1)">
     <defs>
      <path id="DejaVuSans-Bold-1f4cb" d="M 319 -1131 
L 319 4513 
L 3519 4513 
L 3519 -1131 
L 319 -1131 
z
M 678 -775 
L 3163 -775 
L 3163 4153 
L 678 4153 
L 678 -775 
z
" transform="scale(0.015625)"/>
     </defs>
     <use xlink:href="#DejaVuSans-Bold-1f4cb"/>
     <use xlink:href="#DejaVuSans-Bold-20" transform="translate(60.009766 0)"/>
     <use xlink:href="#DejaVuSans-Bold-52" transform="translate(94.824219 0)"/>
     <use xlink:href="#DejaVuSans-Bold-65" transform="translate(171.826172 0)"/>
     <use xlink:href="#DejaVuSans-Bold-70" transform="translate(239.648438 0)"/>
     <use xlink:href="#DejaVuSans-Bold-6f" transform="translate(311.230469 0)"/>
     <use xlink:href="#DejaVuSans-Bold-72" transform="translate(379.931641 0)"/>
     <use xlink:href="#DejaVuSans-Bold-74" transform="translate(429.248047 0)"/>
     <use xlink:href="#DejaVuSans-Bold-73" transform="translate(477.050781 0)"/>
    </g>
    <!-- (Summary) -->
    <g transform="translate(715.75 545.139219) scale(0.1 -0.1)">
     <use xlink:href="#DejaVuSans-Bold-28"/>
     <use xlink:href="#DejaVuSans-Bold-53" transform="translate(45.703125 0)"/>
     <use xlink:href="#DejaVuSans-Bold-75" transform="translate(117.724609 0)"/>
     <use xlink:href="#DejaVuSans-Bold-6d" transform="translate(188.916016 0)"/>
     <use xlink:href="#DejaVuSans-Bold-6d" transform="translate(293.115234 0)"/>
     <use xlink:href="#DejaVuSans-Bold-61" transform="translate(397.314453 0)"/>
     <use xlink:href="#DejaVuSans-Bold-72" transform="translate(464.794922 0)"/>
     <use xlink:href="#DejaVuSans-Bold-79" transform="translate(514.111328 0)"/>
     <use xlink:href="#DejaVuSans-Bold-29" transform="translate(579.296875 0)"/>
    </g>
   </g>
   <g id="text_17">
    <!-- ðŸŽ¯ Drug Discovery -->
    <g transform="translate(156.627656 621.202344) scale(0.1 -0.1)">
     <use xlink:href="#DejaVuSans-Bold-1f3af"/>
     <use xlink:href="#DejaVuSans-Bold-20" transform="translate(60.009766 0)"/>
     <use xlink:href="#DejaVuSans-Bold-44" transform="translate(94.824219 0)"/>
     <use xlink:href="#DejaVuSans-Bold-72" transform="translate(177.832031 0)"/>
     <use xlink:href="#DejaVuSans-Bold-75" transform="translate(227.148438 0)"/>
     <use xlink:href="#DejaVuSans-Bold-67" transform="translate(298.339844 0)"/>
     <use xlink:href="#DejaVuSans-Bold-20" transform="translate(369.921875 0)"/>
     <use xlink:href="#DejaVuSans-Bold-44" transform="translate(404.736328 0)"/>
     <use xlink:href="#DejaVuSans-Bold-69" transform="translate(487.744141 0)"/>
     <use xlink:href="#DejaVuSans-Bold-73" transform="translate(522.021484 0)"/>
     <use xlink:href="#DejaVuSans-Bold-63" transform="translate(581.542969 0)"/>
     <use xlink:href="#DejaVuSans-Bold-6f" transform="translate(640.820312 0)"/>
     <use xlink:href="#DejaVuSans-Bold-76" transform="translate(709.521484 0)"/>
     <use xlink:href="#DejaVuSans-Bold-65" transform="translate(774.707031 0)"/>
     <use xlink:href="#DejaVuSans-Bold-72" transform="translate(842.529297 0)"/>
     <use xlink:href="#DejaVuSans-Bold-79" transform="translate(891.845703 0)"/>
    </g>
    <!-- (Target Analysis) -->
    <g transform="translate(156.759687 632.478281) scale(0.1 -0.1)">
     <use xlink:href="#DejaVuSans-Bold-28"/>
     <use xlink:href="#DejaVuSans-Bold-54" transform="translate(45.703125 0)"/>
     <use xlink:href="#DejaVuSans-Bold-61" transform="translate(101.041016 0)"/>
     <use xlink:href="#DejaVuSans-Bold-72" transform="translate(168.521484 0)"/>
     <use xlink:href="#DejaVuSans-Bold-67" transform="translate(217.837891 0)"/>
     <use xlink:href="#DejaVuSans-Bold-65" transform="translate(289.419922 0)"/>
     <use xlink:href="#DejaVuSans-Bold-74" transform="translate(357.242188 0)"/>
     <use xlink:href="#DejaVuSans-Bold-20" transform="translate(405.044922 0)"/>
     <use xlink:href="#DejaVuSans-Bold-41" transform="translate(439.859375 0)"/>
     <use xlink:href="#DejaVuSans-Bold-6e" transform="translate(517.251953 0)"/>
     <use xlink:href="#DejaVuSans-Bold-61" transform="translate(588.443359 0)"/>
     <use xlink:href="#DejaVuSans-Bold-6c" transform="translate(655.923828 0)"/>
     <use xlink:href="#DejaVuSans-Bold-79" transform="translate(690.201172 0)"/>
     <use xlink:href="#DejaVuSans-Bold-73" transform="translate(755.386719 0)"/>
     <use xlink:href="#DejaVuSans-Bold-69" transform="translate(814.908203 0)"/>
     <use xlink:href="#DejaVuSans-Bold-73" transform="translate(849.185547 0)"/>
     <use xlink:href="#DejaVuSans-Bold-29" transform="translate(908.707031 0)"/>
    </g>
   </g>
   <g id="text_18">
    <!-- ðŸ¥ Clinical Apps -->
    <g transform="translate(410.171406 621.280469) scale(0.1 -0.1)">
     <defs>
      <path id="DejaVuSans-Bold-1f3e5" d="M 319 -1131 
L 319 4513 
L 3519 4513 
L 3519 -1131 
L 319 -1131 
z
M 678 -775 
L 3163 -775 
L 3163 4153 
L 678 4153 
L 678 -775 
z
" transform="scale(0.015625)"/>
     </defs>
     <use xlink:href="#DejaVuSans-Bold-1f3e5"/>
     <use xlink:href="#DejaVuSans-Bold-20" transform="translate(60.009766 0)"/>
     <use xlink:href="#DejaVuSans-Bold-43" transform="translate(94.824219 0)"/>
     <use xlink:href="#DejaVuSans-Bold-6c" transform="translate(168.212891 0)"/>
     <use xlink:href="#DejaVuSans-Bold-69" transform="translate(202.490234 0)"/>
     <use xlink:href="#DejaVuSans-Bold-6e" transform="translate(236.767578 0)"/>
     <use xlink:href="#DejaVuSans-Bold-69" transform="translate(307.958984 0)"/>
     <use xlink:href="#DejaVuSans-Bold-63" transform="translate(342.236328 0)"/>
     <use xlink:href="#DejaVuSans-Bold-61" transform="translate(401.513672 0)"/>
     <use xlink:href="#DejaVuSans-Bold-6c" transform="translate(468.994141 0)"/>
     <use xlink:href="#DejaVuSans-Bold-20" transform="translate(503.271484 0)"/>
     <use xlink:href="#DejaVuSans-Bold-41" transform="translate(538.085938 0)"/>
     <use xlink:href="#DejaVuSans-Bold-70" transform="translate(615.478516 0)"/>
     <use xlink:href="#DejaVuSans-Bold-70" transform="translate(687.060547 0)"/>
     <use xlink:href="#DejaVuSans-Bold-73" transform="translate(758.642578 0)"/>
    </g>
    <!-- (Biomarkers) -->
    <g transform="translate(414.472969 632.478281) scale(0.1 -0.1)">
     <defs>
      <path id="DejaVuSans-Bold-6b" d="M 538 4863 
L 1656 4863 
L 1656 2216 
L 2944 3500 
L 4244 3500 
L 2534 1894 
L 4378 0 
L 3022 0 
L 1656 1459 
L 1656 0 
L 538 0 
L 538 4863 
z
" transform="scale(0.015625)"/>
     </defs>
     <use xlink:href="#DejaVuSans-Bold-28"/>
     <use xlink:href="#DejaVuSans-Bold-42" transform="translate(45.703125 0)"/>
     <use xlink:href="#DejaVuSans-Bold-69" transform="translate(121.923828 0)"/>
     <use xlink:href="#DejaVuSans-Bold-6f" transform="translate(156.201172 0)"/>
     <use xlink:href="#DejaVuSans-Bold-6d" transform="translate(224.902344 0)"/>
     <use xlink:href="#DejaVuSans-Bold-61" transform="translate(329.101562 0)"/>
     <use xlink:href="#DejaVuSans-Bold-72" transform="translate(396.582031 0)"/>
     <use xlink:href="#DejaVuSans-Bold-6b" transform="translate(445.898438 0)"/>
     <use xlink:href="#DejaVuSans-Bold-65" transform="translate(509.777344 0)"/>
     <use xlink:href="#DejaVuSans-Bold-72" transform="translate(577.599609 0)"/>
     <use xlink:href="#DejaVuSans-Bold-73" transform="translate(626.916016 0)"/>
     <use xlink:href="#DejaVuSans-Bold-29" transform="translate(686.4375 0)"/>
    </g>
   </g>
   <g id="text_19">
    <!-- ðŸ”¬ Research -->
    <g transform="translate(666.966719 621.280469) scale(0.1 -0.1)">
     <defs>
      <path id="DejaVuSans-Bold-1f52c" d="M 319 -1131 
L 319 4513 
L 3519 4513 
L 3519 -1131 
L 319 -1131 
z
M 678 -775 
L 3163 -775 
L 3163 4153 
L 678 4153 
L 678 -775 
z
" transform="scale(0.015625)"/>
     </defs>
     <use xlink:href="#DejaVuSans-Bold-1f52c"/>
     <use xlink:href="#DejaVuSans-Bold-20" transform="translate(60.009766 0)"/>
     <use xlink:href="#DejaVuSans-Bold-52" transform="translate(94.824219 0)"/>
     <use xlink:href="#DejaVuSans-Bold-65" transform="translate(171.826172 0)"/>
     <use xlink:href="#DejaVuSans-Bold-73" transform="translate(239.648438 0)"/>
     <use xlink:href="#DejaVuSans-Bold-65" transform="translate(299.169922 0)"/>
     <use xlink:href="#DejaVuSans-Bold-61" transform="translate(366.992188 0)"/>
     <use xlink:href="#DejaVuSans-Bold-72" transform="translate(434.472656 0)"/>
     <use xlink:href="#DejaVuSans-Bold-63" transform="translate(483.789062 0)"/>
     <use xlink:href="#DejaVuSans-Bold-68" transform="translate(543.066406 0)"/>
    </g>
    <!-- (Publications) -->
    <g transform="translate(658.465938 632.478281) scale(0.1 -0.1)">
     <defs>
      <path id="DejaVuSans-Bold-62" d="M 2400 722 
Q 2759 722 2948 984 
Q 3138 1247 3138 1747 
Q 3138 2247 2948 2509 
Q 2759 2772 2400 2772 
Q 2041 2772 1848 2508 
Q 1656 2244 1656 1747 
Q 1656 1250 1848 986 
Q 2041 722 2400 722 
z
M 1656 2988 
Q 1888 3294 2169 3439 
Q 2450 3584 2816 3584 
Q 3463 3584 3878 3070 
Q 4294 2556 4294 1747 
Q 4294 938 3878 423 
Q 3463 -91 2816 -91 
Q 2450 -91 2169 54 
Q 1888 200 1656 506 
L 1656 0 
L 538 0 
L 538 4863 
L 1656 4863 
L 1656 2988 
z
" transform="scale(0.015625)"/>
     </defs>
     <use xlink:href="#DejaVuSans-Bold-28"/>
     <use xlink:href="#DejaVuSans-Bold-50" transform="translate(45.703125 0)"/>
     <use xlink:href="#DejaVuSans-Bold-75" transform="translate(118.994141 0)"/>
     <use xlink:href="#DejaVuSans-Bold-62" transform="translate(190.185547 0)"/>
     <use xlink:href="#DejaVuSans-Bold-6c" transform="translate(261.767578 0)"/>
     <use xlink:href="#DejaVuSans-Bold-69" transform="translate(296.044922 0)"/>
     <use xlink:href="#DejaVuSans-Bold-63" transform="translate(330.322266 0)"/>
     <use xlink:href="#DejaVuSans-Bold-61" transform="translate(389.599609 0)"/>
     <use xlink:href="#DejaVuSans-Bold-74" transform="translate(457.080078 0)"/>
     <use xlink:href="#DejaVuSans-Bold-69" transform="translate(504.882812 0)"/>
     <use xlink:href="#DejaVuSans-Bold-6f" transform="translate(539.160156 0)"/>
     <use xlink:href="#DejaVuSans-Bold-6e" transform="translate(607.861328 0)"/>
     <use xlink:href="#DejaVuSans-Bold-73" transform="translate(679.052734 0)"/>
     <use xlink:href="#DejaVuSans-Bold-29" transform="translate(738.574219 0)"/>
    </g>
   </g>
   <g id="text_20">
    <!-- Legend: -->
    <g transform="translate(56.52 676.5) scale(0.12 -0.12)">
     <defs>
      <path id="DejaVuSans-Bold-64" d="M 2919 2988 
L 2919 4863 
L 4044 4863 
L 4044 0 
L 2919 0 
L 2919 506 
Q 2688 197 2409 53 
Q 2131 -91 1766 -91 
Q 1119 -91 703 423 
Q 288 938 288 1747 
Q 288 2556 703 3070 
Q 1119 3584 1766 3584 
Q 2128 3584 2408 3439 
Q 2688 3294 2919 2988 
z
M 2181 722 
Q 2541 722 2730 984 
Q 2919 1247 2919 1747 
Q 2919 2247 2730 2509 
Q 2541 2772 2181 2772 
Q 1825 2772 1636 2509 
Q 1447 2247 1447 1747 
Q 1447 1247 1636 984 
Q 1825 722 2181 722 
z
" transform="scale(0.015625)"/>
      <path id="DejaVuSans-Bold-3a" d="M 716 3500 
L 1844 3500 
L 1844 2291 
L 716 2291 
L 716 3500 
z
M 716 1209 
L 1844 1209 
L 1844 0 
L 716 0 
L 716 1209 
z
" transform="scale(0.015625)"/>
     </defs>
     <use xlink:href="#DejaVuSans-Bold-4c"/>
     <use xlink:href="#DejaVuSans-Bold-65" transform="translate(63.720703 0)"/>
     <use xlink:href="#DejaVuSans-Bold-67" transform="translate(131.542969 0)"/>
     <use xlink:href="#DejaVuSans-Bold-65" transform="translate(203.125 0)"/>
     <use xlink:href="#DejaVuSans-Bold-6e" transform="translate(270.947266 0)"/>
     <use xlink:href="#DejaVuSans-Bold-64" transform="translate(342.138672 0)"/>
     <use xlink:href="#DejaVuSans-Bold-3a" transform="translate(413.720703 0)"/>
    </g>
   </g>
   <g id="text_21">
    <!-- Data Input -->
    <g transform="translate(194.616 690.623437) scale(0.09 -0.09)">
     <defs>
      <path id="DejaVuSans-44" d="M 1259 4147 
L 1259 519 
L 2022 519 
Q 2988 519 3436 956 
Q 3884 1394 3884 2338 
Q 3884 3275 3436 3711 
Q 2988 4147 2022 4147 
L 1259 4147 
z
M 628 4666 
L 1925 4666 
Q 3281 4666 3915 4102 
Q 4550 3538 4550 2338 
Q 4550 1131 3912 565 
Q 3275 0 1925 0 
L 628 0 
L 628 4666 
z
" transform="scale(0.015625)"/>
      <path id="DejaVuSans-61" d="M 2194 1759 
Q 1497 1759 1228 1600 
Q 959 1441 959 1056 
Q 959 750 1161 570 
Q 1363 391 1709 391 
Q 2188 391 2477 730 
Q 2766 1069 2766 1631 
L 2766 1759 
L 2194 1759 
z
M 3341 1997 
L 3341 0 
L 2766 0 
L 2766 531 
Q 2569 213 2275 61 
Q 1981 -91 1556 -91 
Q 1019 -91 701 211 
Q 384 513 384 1019 
Q 384 1609 779 1909 
Q 1175 2209 1959 2209 
L 2766 2209 
L 2766 2266 
Q 2766 2663 2505 2880 
Q 2244 3097 1772 3097 
Q 1472 3097 1187 3025 
Q 903 2953 641 2809 
L 641 3341 
Q 956 3463 1253 3523 
Q 1550 3584 1831 3584 
Q 2591 3584 2966 3190 
Q 3341 2797 3341 1997 
z
" transform="scale(0.015625)"/>
      <path id="DejaVuSans-74" d="M 1172 4494 
L 1172 3500 
L 2356 3500 
L 2356 3053 
L 1172 3053 
L 1172 1153 
Q 1172 725 1289 603 
Q 1406 481 1766 481 
L 2356 481 
L 2356 0 
L 1766 0 
Q 1100 0 847 248 
Q 594 497 594 1153 
L 594 3053 
L 172 3053 
L 172 3500 
L 594 3500 
L 594 4494 
L 1172 4494 
z
" transform="scale(0.015625)"/>
      <path id="DejaVuSans-20" transform="scale(0.015625)"/>
      <path id="DejaVuSans-49" d="M 628 4666 
L 1259 4666 
L 1259 0 
L 628 0 
L 628 4666 
z
" transform="scale(0.015625)"/>
      <path id="DejaVuSans-6e" d="M 3513 2113 
L 3513 0 
L 2938 0 
L 2938 2094 
Q 2938 2591 2744 2837 
Q 2550 3084 2163 3084 
Q 1697 3084 1428 2787 
Q 1159 2491 1159 1978 
L 1159 0 
L 581 0 
L 581 3500 
L 1159 3500 
L 1159 2956 
Q 1366 3272 1645 3428 
Q 1925 3584 2291 3584 
Q 2894 3584 3203 3211 
Q 3513 2838 3513 2113 
z
" transform="scale(0.015625)"/>
      <path id="DejaVuSans-70" d="M 1159 525 
L 1159 -1331 
L 581 -1331 
L 581 3500 
L 1159 3500 
L 1159 2969 
Q 1341 3281 1617 3432 
Q 1894 3584 2278 3584 
Q 2916 3584 3314 3078 
Q 3713 2572 3713 1747 
Q 3713 922 3314 415 
Q 2916 -91 2278 -91 
Q 1894 -91 1617 61 
Q 1341 213 1159 525 
z
M 3116 1747 
Q 3116 2381 2855 2742 
Q 2594 3103 2138 3103 
Q 1681 3103 1420 2742 
Q 1159 2381 1159 1747 
Q 1159 1113 1420 752 
Q 1681 391 2138 391 
Q 2594 391 2855 752 
Q 3116 1113 3116 1747 
z
" transform="scale(0.015625)"/>
      <path id="DejaVuSans-75" d="M 544 1381 
L 544 3500 
L 1119 3500 
L 1119 1403 
Q 1119 906 1312 657 
Q 1506 409 1894 409 
Q 2359 409 2629 706 
Q 2900 1003 2900 1516 
L 2900 3500 
L 3475 3500 
L 3475 0 
L 2900 0 
L 2900 538 
Q 2691 219 2414 64 
Q 2138 -91 1772 -91 
Q 1169 -91 856 284 
Q 544 659 544 1381 
z
M 1991 3584 
L 1991 3584 
z
" transform="scale(0.015625)"/>
     </defs>
     <use xlink:href="#DejaVuSans-44"/>
     <use xlink:href="#DejaVuSans-61" transform="translate(77.001953 0)"/>
     <use xlink:href="#DejaVuSans-74" transform="translate(138.28125 0)"/>
     <use xlink:href="#DejaVuSans-61" transform="translate(177.490234 0)"/>
     <use xlink:href="#DejaVuSans-20" transform="translate(238.769531 0)"/>
     <use xlink:href="#DejaVuSans-49" transform="translate(270.556641 0)"/>
     <use xlink:href="#DejaVuSans-6e" transform="translate(300.048828 0)"/>
     <use xlink:href="#DejaVuSans-70" transform="translate(363.427734 0)"/>
     <use xlink:href="#DejaVuSans-75" transform="translate(426.904297 0)"/>
     <use xlink:href="#DejaVuSans-74" transform="translate(490.283203 0)"/>
    </g>
   </g>
   <g id="text_22">
    <!-- Processing -->
    <g transform="translate(342.576 690.623437) scale(0.09 -0.09)">
     <defs>
      <path id="DejaVuSans-50" d="M 1259 4147 
L 1259 2394 
L 2053 2394 
Q 2494 2394 2734 2622 
Q 2975 2850 2975 3272 
Q 2975 3691 2734 3919 
Q 2494 4147 2053 4147 
L 1259 4147 
z
M 628 4666 
L 2053 4666 
Q 2838 4666 3239 4311 
Q 3641 3956 3641 3272 
Q 3641 2581 3239 2228 
Q 2838 1875 2053 1875 
L 1259 1875 
L 1259 0 
L 628 0 
L 628 4666 
z
" transform="scale(0.015625)"/>
      <path id="DejaVuSans-72" d="M 2631 2963 
Q 2534 3019 2420 3045 
Q 2306 3072 2169 3072 
Q 1681 3072 1420 2755 
Q 1159 2438 1159 1844 
L 1159 0 
L 581 0 
L 581 3500 
L 1159 3500 
L 1159 2956 
Q 1341 3275 1631 3429 
Q 1922 3584 2338 3584 
Q 2397 3584 2469 3576 
Q 2541 3569 2628 3553 
L 2631 2963 
z
" transform="scale(0.015625)"/>
      <path id="DejaVuSans-6f" d="M 1959 3097 
Q 1497 3097 1228 2736 
Q 959 2375 959 1747 
Q 959 1119 1226 758 
Q 1494 397 1959 397 
Q 2419 397 2687 759 
Q 2956 1122 2956 1747 
Q 2956 2369 2687 2733 
Q 2419 3097 1959 3097 
z
M 1959 3584 
Q 2709 3584 3137 3096 
Q 3566 2609 3566 1747 
Q 3566 888 3137 398 
Q 2709 -91 1959 -91 
Q 1206 -91 779 398 
Q 353 888 353 1747 
Q 353 2609 779 3096 
Q 1206 3584 1959 3584 
z
" transform="scale(0.015625)"/>
      <path id="DejaVuSans-63" d="M 3122 3366 
L 3122 2828 
Q 2878 2963 2633 3030 
Q 2388 3097 2138 3097 
Q 1578 3097 1268 2742 
Q 959 2388 959 1747 
Q 959 1106 1268 751 
Q 1578 397 2138 397 
Q 2388 397 2633 464 
Q 2878 531 3122 666 
L 3122 134 
Q 2881 22 2623 -34 
Q 2366 -91 2075 -91 
Q 1284 -91 818 406 
Q 353 903 353 1747 
Q 353 2603 823 3093 
Q 1294 3584 2113 3584 
Q 2378 3584 2631 3529 
Q 2884 3475 3122 3366 
z
" transform="scale(0.015625)"/>
      <path id="DejaVuSans-65" d="M 3597 1894 
L 3597 1613 
L 953 1613 
Q 991 1019 1311 708 
Q 1631 397 2203 397 
Q 2534 397 2845 478 
Q 3156 559 3463 722 
L 3463 178 
Q 3153 47 2828 -22 
Q 2503 -91 2169 -91 
Q 1331 -91 842 396 
Q 353 884 353 1716 
Q 353 2575 817 3079 
Q 1281 3584 2069 3584 
Q 2775 3584 3186 3129 
Q 3597 2675 3597 1894 
z
M 3022 2063 
Q 3016 2534 2758 2815 
Q 2500 3097 2075 3097 
Q 1594 3097 1305 2825 
Q 1016 2553 972 2059 
L 3022 2063 
z
" transform="scale(0.015625)"/>
      <path id="DejaVuSans-73" d="M 2834 3397 
L 2834 2853 
Q 2591 2978 2328 3040 
Q 2066 3103 1784 3103 
Q 1356 3103 1142 2972 
Q 928 2841 928 2578 
Q 928 2378 1081 2264 
Q 1234 2150 1697 2047 
L 1894 2003 
Q 2506 1872 2764 1633 
Q 3022 1394 3022 966 
Q 3022 478 2636 193 
Q 2250 -91 1575 -91 
Q 1294 -91 989 -36 
Q 684 19 347 128 
L 347 722 
Q 666 556 975 473 
Q 1284 391 1588 391 
Q 1994 391 2212 530 
Q 2431 669 2431 922 
Q 2431 1156 2273 1281 
Q 2116 1406 1581 1522 
L 1381 1569 
Q 847 1681 609 1914 
Q 372 2147 372 2553 
Q 372 3047 722 3315 
Q 1072 3584 1716 3584 
Q 2034 3584 2315 3537 
Q 2597 3491 2834 3397 
z
" transform="scale(0.015625)"/>
      <path id="DejaVuSans-69" d="M 603 3500 
L 1178 3500 
L 1178 0 
L 603 0 
L 603 3500 
z
M 603 4863 
L 1178 4863 
L 1178 4134 
L 603 4134 
L 603 4863 
z
" transform="scale(0.015625)"/>
      <path id="DejaVuSans-67" d="M 2906 1791 
Q 2906 2416 2648 2759 
Q 2391 3103 1925 3103 
Q 1463 3103 1205 2759 
Q 947 2416 947 1791 
Q 947 1169 1205 825 
Q 1463 481 1925 481 
Q 2391 481 2648 825 
Q 2906 1169 2906 1791 
z
M 3481 434 
Q 3481 -459 3084 -895 
Q 2688 -1331 1869 -1331 
Q 1566 -1331 1297 -1286 
Q 1028 -1241 775 -1147 
L 775 -588 
Q 1028 -725 1275 -790 
Q 1522 -856 1778 -856 
Q 2344 -856 2625 -561 
Q 2906 -266 2906 331 
L 2906 616 
Q 2728 306 2450 153 
Q 2172 0 1784 0 
Q 1141 0 747 490 
Q 353 981 353 1791 
Q 353 2603 747 3093 
Q 1141 3584 1784 3584 
Q 2172 3584 2450 3431 
Q 2728 3278 2906 2969 
L 2906 3500 
L 3481 3500 
L 3481 434 
z
" transform="scale(0.015625)"/>
     </defs>
     <use xlink:href="#DejaVuSans-50"/>
     <use xlink:href="#DejaVuSans-72" transform="translate(58.552734 0)"/>
     <use xlink:href="#DejaVuSans-6f" transform="translate(97.416016 0)"/>
     <use xlink:href="#DejaVuSans-63" transform="translate(158.597656 0)"/>
     <use xlink:href="#DejaVuSans-65" transform="translate(213.578125 0)"/>
     <use xlink:href="#DejaVuSans-73" transform="translate(275.101562 0)"/>
     <use xlink:href="#DejaVuSans-73" transform="translate(327.201172 0)"/>
     <use xlink:href="#DejaVuSans-69" transform="translate(379.300781 0)"/>
     <use xlink:href="#DejaVuSans-6e" transform="translate(407.083984 0)"/>
     <use xlink:href="#DejaVuSans-67" transform="translate(470.462891 0)"/>
    </g>
   </g>
   <g id="text_23">
    <!-- ML Model -->
    <g transform="translate(490.536 690.623437) scale(0.09 -0.09)">
     <defs>
      <path id="DejaVuSans-4d" d="M 628 4666 
L 1569 4666 
L 2759 1491 
L 3956 4666 
L 4897 4666 
L 4897 0 
L 4281 0 
L 4281 4097 
L 3078 897 
L 2444 897 
L 1241 4097 
L 1241 0 
L 628 0 
L 628 4666 
z
" transform="scale(0.015625)"/>
      <path id="DejaVuSans-4c" d="M 628 4666 
L 1259 4666 
L 1259 531 
L 3531 531 
L 3531 0 
L 628 0 
L 628 4666 
z
" transform="scale(0.015625)"/>
      <path id="DejaVuSans-64" d="M 2906 2969 
L 2906 4863 
L 3481 4863 
L 3481 0 
L 2906 0 
L 2906 525 
Q 2725 213 2448 61 
Q 2172 -91 1784 -91 
Q 1150 -91 751 415 
Q 353 922 353 1747 
Q 353 2572 751 3078 
Q 1150 3584 1784 3584 
Q 2172 3584 2448 3432 
Q 2725 3281 2906 2969 
z
M 947 1747 
Q 947 1113 1208 752 
Q 1469 391 1925 391 
Q 2381 391 2643 752 
Q 2906 1113 2906 1747 
Q 2906 2381 2643 2742 
Q 2381 3103 1925 3103 
Q 1469 3103 1208 2742 
Q 947 2381 947 1747 
z
" transform="scale(0.015625)"/>
      <path id="DejaVuSans-6c" d="M 603 4863 
L 1178 4863 
L 1178 0 
L 603 0 
L 603 4863 
z
" transform="scale(0.015625)"/>
     </defs>
     <use xlink:href="#DejaVuSans-4d"/>
     <use xlink:href="#DejaVuSans-4c" transform="translate(86.279297 0)"/>
     <use xlink:href="#DejaVuSans-20" transform="translate(141.992188 0)"/>
     <use xlink:href="#DejaVuSans-4d" transform="translate(173.779297 0)"/>
     <use xlink:href="#DejaVuSans-6f" transform="translate(260.058594 0)"/>
     <use xlink:href="#DejaVuSans-64" transform="translate(321.240234 0)"/>
     <use xlink:href="#DejaVuSans-65" transform="translate(384.716797 0)"/>
     <use xlink:href="#DejaVuSans-6c" transform="translate(446.240234 0)"/>
    </g>
   </g>
   <g id="text_24">
    <!-- Results -->
    <g transform="translate(638.496 690.623437) scale(0.09 -0.09)">
     <defs>
      <path id="DejaVuSans-52" d="M 2841 2188 
Q 3044 2119 3236 1894 
Q 3428 1669 3622 1275 
L 4263 0 
L 3584 0 
L 2988 1197 
Q 2756 1666 2539 1819 
Q 2322 1972 1947 1972 
L 1259 1972 
L 1259 0 
L 628 0 
L 628 4666 
L 2053 4666 
Q 2853 4666 3247 4331 
Q 3641 3997 3641 3322 
Q 3641 2881 3436 2590 
Q 3231 2300 2841 2188 
z
M 1259 4147 
L 1259 2491 
L 2053 2491 
Q 2509 2491 2742 2702 
Q 2975 2913 2975 3322 
Q 2975 3731 2742 3939 
Q 2509 4147 2053 4147 
L 1259 4147 
z
" transform="scale(0.015625)"/>
     </defs>
     <use xlink:href="#DejaVuSans-52"/>
     <use xlink:href="#DejaVuSans-65" transform="translate(64.982422 0)"/>
     <use xlink:href="#DejaVuSans-73" transform="translate(126.505859 0)"/>
     <use xlink:href="#DejaVuSans-75" transform="translate(178.605469 0)"/>
     <use xlink:href="#DejaVuSans-6c" transform="translate(241.984375 0)"/>
     <use xlink:href="#DejaVuSans-74" transform="translate(269.767578 0)"/>
     <use xlink:href="#DejaVuSans-73" transform="translate(308.976562 0)"/>
    </g>
   </g>
   <g id="text_25">
    <!-- Pharma Apps -->
    <g transform="translate(786.456 690.623437) scale(0.09 -0.09)">
     <defs>
      <path id="DejaVuSans-68" d="M 3513 2113 
L 3513 0 
L 2938 0 
L 2938 2094 
Q 2938 2591 2744 2837 
Q 2550 3084 2163 3084 
Q 1697 3084 1428 2787 
Q 1159 2491 1159 1978 
L 1159 0 
L 581 0 
L 581 4863 
L 1159 4863 
L 1159 2956 
Q 1366 3272 1645 3428 
Q 1925 3584 2291 3584 
Q 2894 3584 3203 3211 
Q 3513 2838 3513 2113 
z
" transform="scale(0.015625)"/>
      <path id="DejaVuSans-6d" d="M 3328 2828 
Q 3544 3216 3844 3400 
Q 4144 3584 4550 3584 
Q 5097 3584 5394 3201 
Q 5691 2819 5691 2113 
L 5691 0 
L 5113 0 
L 5113 2094 
Q 5113 2597 4934 2840 
Q 4756 3084 4391 3084 
Q 3944 3084 3684 2787 
Q 3425 2491 3425 1978 
L 3425 0 
L 2847 0 
L 2847 2094 
Q 2847 2600 2669 2842 
Q 2491 3084 2119 3084 
Q 1678 3084 1418 2786 
Q 1159 2488 1159 1978 
L 1159 0 
L 581 0 
L 581 3500 
L 1159 3500 
L 1159 2956 
Q 1356 3278 1631 3431 
Q 1906 3584 2284 3584 
Q 2666 3584 2933 3390 
Q 3200 3197 3328 2828 
z
" transform="scale(0.015625)"/>
      <path id="DejaVuSans-41" d="M 2188 4044 
L 1331 1722 
L 3047 1722 
L 2188 4044 
z
M 1831 4666 
L 2547 4666 
L 4325 0 
L 3669 0 
L 3244 1197 
L 1141 1197 
L 716 0 
L 50 0 
L 1831 4666 
z
" transform="scale(0.015625)"/>
     </defs>
     <use xlink:href="#DejaVuSans-50"/>
     <use xlink:href="#DejaVuSans-68" transform="translate(60.302734 0)"/>
     <use xlink:href="#DejaVuSans-61" transform="translate(123.681641 0)"/>
     <use xlink:href="#DejaVuSans-72" transform="translate(184.960938 0)"/>
     <use xlink:href="#DejaVuSans-6d" transform="translate(224.324219 0)"/>
     <use xlink:href="#DejaVuSans-61" transform="translate(321.736328 0)"/>
     <use xlink:href="#DejaVuSans-20" transform="translate(383.015625 0)"/>
     <use xlink:href="#DejaVuSans-41" transform="translate(414.802734 0)"/>
     <use xlink:href="#DejaVuSans-70" transform="translate(483.210938 0)"/>
     <use xlink:href="#DejaVuSans-70" transform="translate(546.6875 0)"/>
     <use xlink:href="#DejaVuSans-73" transform="translate(610.164062 0)"/>
    </g>
   </g>
  </g>
 </g>
 <defs>
  <clipPath id="pd3d079f729">
   <rect x="7.2" y="7.2" width="986.4" height="698.4"/>
  </clipPath>
 </defs>
</svg>
